<?xml version="1.0" encoding="UTF-8"?>
<svg width="65px" height="65px" viewBox="0 0 65 65" version="1.1" xmlns="http://www.w3.org/2000/svg" xmlns:xlink="http://www.w3.org/1999/xlink">
    <!-- Generator: Sketch 48.2 (47327) - http://www.bohemiancoding.com/sketch -->
    <title>Logo/BCH@1x</title>
    <desc>Created with Sketch.</desc>
    <defs></defs>
    <g id="Symbols" stroke="none" stroke-width="1" fill="none" fill-rule="evenodd">
        <g id="Logo/BCH" fill-rule="nonzero">
            <g id="btc" transform="translate(32.500000, 32.500000) rotate(-30.000000) translate(-32.500000, -32.500000) ">
                <path d="M64.025,40.365 C59.6869,57.77395 42.04915,68.3696 24.635,64.025 C7.22085,59.6804 -3.369925,42.051425 0.975,24.64085 C5.319925,7.230275 22.9489,-3.37025 40.35915,0.975 C57.7694,5.32025 68.369925,22.9502 64.025,40.365 Z" id="Shape" fill="#F7931A"></path>
                <path d="M46.8325,27.869725 C47.4786,23.54495 44.1857,21.2199 39.6825,19.669 L41.145,13.810875 L37.5778,12.922325 L36.153,18.6264 C35.21635,18.39305 34.2537,18.1714 33.2969,17.9543 L34.7269,12.212525 L31.163275,11.323975 L29.705,17.179825 L22.5121,15.398175 L21.5631,19.2075 C21.5631,19.2075 24.20925,19.81395 24.15335,19.85165 C25.59765,20.2124 25.8596,21.1679 25.8154,21.9258 L21.81335,37.9743 C21.63655,38.41305 21.1887,39.07085 20.17925,38.8193 C20.215,38.8713 17.58705,38.1693 17.58705,38.1693 L15.81645,42.257475 L22.99895,44.070975 L21.5228,49.99735 L25.0848,50.8859 L26.5473,45.023225 C27.5223,45.287125 28.4648,45.530875 29.38845,45.760325 L27.9318,51.5957 L31.49835,52.48425 L32.9745,46.56925 C39.056225,47.71975 43.629625,47.25565 45.552,41.75925 C47.1029,37.331125 45.47595,34.776625 42.276,33.110025 C44.60625,32.570525 46.36125,31.038475 46.829575,27.872 M38.6815,39.2964 C37.5765,43.724525 30.122625,41.33155 27.703975,40.7303 L29.662425,32.879925 C32.079775,33.483125 39.83135,34.677825 38.6828,39.29575 M39.7878,27.807 C38.78225,31.837 32.575725,29.7895 30.561375,29.28705 L32.334575,22.165 C34.349575,22.6681 40.83365,23.60475 39.7852,27.806675" id="Shape" fill="#FFFFFF"></path>
            </g>
        </g>
    </g>
</svg>