<?xml version="1.0" encoding="UTF-8"?>
<svg width="65px" height="65px" viewBox="0 0 65 65" version="1.1" xmlns="http://www.w3.org/2000/svg" xmlns:xlink="http://www.w3.org/1999/xlink">
    <!-- Generator: Sketch 48.2 (47327) - http://www.bohemiancoding.com/sketch -->
    <title>Logo/Monero@1x</title>
    <desc>Created with Sketch.</desc>
    <defs></defs>
    <g id="Symbols" stroke="none" stroke-width="1" fill="none" fill-rule="evenodd">
        <g id="Logo/Monero">
            <circle id="Oval-6" fill="#FFFFFF" cx="32.5" cy="32.5" r="32.5"></circle>
            <g id="xmr" fill-rule="nonzero">
                <path d="M32.5162419,0 C14.5787106,0 0.0324837581,14.5535 0.0324837581,32.5 C0.0268247295,35.9882499 0.586302849,39.4543583 1.68915542,42.7635 L11.4017991,42.7635 L11.4017991,15.418 L32.5162419,36.543 L53.6306847,15.418 L53.6306847,42.7635 L63.3433283,42.7635 C64.4425448,39.4534653 65.0019268,35.9879523 65,32.5 C65,14.5535 50.4537731,0 32.5162419,0" id="Shape" fill="#FA6800"></path>
                <path d="M27.6631684,41.405 L18.4442779,32.1815 L18.4442779,49.387 L4.75562219,49.387 C10.4597701,58.747 20.7571214,65 32.5162419,65 C44.2753623,65 54.5727136,58.747 60.2703648,49.387 L46.5817091,49.387 L46.5817091,32.1815 L37.3693153,41.405 L32.5162419,46.2605 L27.6631684,41.405 Z" id="Shape" fill="#4C4C4C"></path>
            </g>
        </g>
    </g>
</svg>