<?xml version="1.0" encoding="UTF-8"?>
<svg width="100px" height="100px" viewBox="0 0 100 100" version="1.1" xmlns="http://www.w3.org/2000/svg" xmlns:xlink="http://www.w3.org/1999/xlink">
    <!-- Generator: Sketch 49.3 (51167) - http://www.bohemiancoding.com/sketch -->
    <title>Icon/Features/Single-color/Connections</title>
    <desc>Created with Sketch.</desc>
    <defs>
        <polygon id="path-1" points="0 0.025 52.081 0.025 52.081 40 0 40"></polygon>
    </defs>
    <g id="Icon/Features/Single-color/Connections" stroke="none" stroke-width="1" fill="none" fill-rule="evenodd">
        <g id="Page-1" transform="translate(13.000000, 29.000000)">
            <g id="Group-3" transform="translate(0.000000, 0.974900)">
                <mask id="mask-2" fill="white">
                    <use xlink:href="#path-1"></use>
                </mask>
                <g id="Clip-2"></g>
                <path d="M49.5205,32.0303 C42.8925,38.6583 32.1075,38.6583 25.4785,32.0303 C20.4675,27.0183 19.0915,19.3273 22.0555,12.8933 C22.8955,11.0713 24.0465,9.4213 25.4795,7.9883 C26.9545,6.5133 28.6605,5.3363 30.5485,4.4903 C36.9425,1.6283 44.5655,3.0343 49.5205,7.9883 C50.1065,8.5743 51.0555,8.5743 51.6415,7.9883 C52.2275,7.4033 52.2275,6.4533 51.6415,5.8673 C45.8135,0.0383 36.8445,-1.6157 29.3225,1.7523 C27.0995,2.7483 25.0925,4.1333 23.3575,5.8673 C21.6735,7.5513 20.3185,9.4923 19.3305,11.6383 C18.3155,13.8423 17.7465,16.1703 17.5765,18.5093 L1.4995,18.5093 C0.6715,18.5093 -0.0005,19.1813 -0.0005,20.0093 C-0.0005,20.8383 0.6715,21.5093 1.4995,21.5093 L17.5825,21.5093 C17.9405,26.1833 19.9125,30.7063 23.3575,34.1513 C27.2565,38.0513 32.3785,40.0003 37.4995,40.0003 C42.6215,40.0003 47.7435,38.0513 51.6415,34.1513 C52.2275,33.5653 52.2275,32.6163 51.6415,32.0303 C51.0555,31.4443 50.1065,31.4443 49.5205,32.0303" id="Fill-1" fill="#0081FF" mask="url(#mask-2)"></path>
            </g>
            <path d="M47.3164,12.4876 L45.1964,14.6086 L38.3604,21.4436 L37.0804,22.7226 L32.2324,17.8746 C32.1334,17.7756 32.0124,17.7176 31.8964,17.6516 C31.6644,17.5196 31.4154,17.4286 31.1544,17.4286 C30.7904,17.4286 30.4324,17.5706 30.1434,17.8306 C30.1234,17.8486 30.0964,17.8556 30.0774,17.8746 C30.0234,17.9286 30.0004,17.9986 29.9554,18.0576 C29.5744,18.5716 29.5614,19.2476 29.9104,19.7786 C29.9664,19.8626 30.0034,19.9556 30.0774,20.0296 L36.0034,25.9556 C36.0084,25.9606 36.0154,25.9616 36.0204,25.9666 C36.5984,26.5256 37.5874,26.5246 38.1574,25.9556 L46.7954,17.3186 L49.0554,15.0566 L49.4704,14.6426 C50.0654,14.0486 50.0654,13.0816 49.4704,12.4876 C48.8964,11.9126 47.8904,11.9126 47.3164,12.4876" id="Fill-4" fill="#08B689"></path>
            <path d="M72.5,19.4842 L50.406,19.4842 C50.301,18.5722 50.098,17.6912 49.813,16.8462 L47.349,19.3112 C47.44,19.8562 47.5,20.4132 47.5,20.9842 C47.5,26.4982 43.014,30.9842 37.5,30.9842 C31.986,30.9842 27.5,26.4982 27.5,20.9842 C27.5,15.4702 31.986,10.9842 37.5,10.9842 C39.945,10.9842 42.186,11.8702 43.925,13.3332 L46.043,11.2152 C46.044,11.2142 46.045,11.2132 46.046,11.2132 C43.758,9.2092 40.772,7.9842 37.5,7.9842 C30.332,7.9842 24.5,13.8162 24.5,20.9842 C24.5,28.1522 30.332,33.9842 37.5,33.9842 C44.16,33.9842 49.659,28.9472 50.406,22.4842 L72.5,22.4842 C73.328,22.4842 74,21.8132 74,20.9842 C74,20.1562 73.328,19.4842 72.5,19.4842" id="Fill-6" fill="#0081FF"></path>
        </g>
    </g>
</svg>