<?xml version="1.0" encoding="UTF-8"?>
<svg width="100px" height="100px" viewBox="0 0 100 100" version="1.1" xmlns="http://www.w3.org/2000/svg" xmlns:xlink="http://www.w3.org/1999/xlink">
    <!-- Generator: Sketch 49.3 (51167) - http://www.bohemiancoding.com/sketch -->
    <title>Icon/Features/Single-color/Customer Service</title>
    <desc>Created with Sketch.</desc>
    <defs>
        <polygon id="path-1" points="0.181575758 0.58565 30.5454545 0.58565 30.5454545 41.0322581 0.181575758 41.0322581"></polygon>
        <polygon id="path-3" points="0 0.819020968 30.6402303 0.819020968 30.6402303 40.5852629 0 40.5852629"></polygon>
    </defs>
    <g id="Icon/Features/Single-color/Customer-Service" stroke="none" stroke-width="1" fill="none" fill-rule="evenodd">
        <g id="Page-1" transform="translate(21.000000, 28.000000)">
            <g>
                <g id="Group-3" transform="translate(25.454545, 11.148806)">
                    <mask id="mask-2" fill="white">
                        <use xlink:href="#path-1"></use>
                    </mask>
                    <g id="Clip-2"></g>
                    <path d="M28.2477576,0.58565 L7.73054545,0.58565 L7.73054545,3.15016613 L28,3.15016613 L28,29.6125532 L14.6949091,29.6125532 L7.40218182,37.0111823 L7.40218182,29.6125532 L6.12945455,29.6125532 L1.99818182,29.6125532 C1.62315152,30.4451661 0.979151515,31.118779 0.181575758,31.5453435 C0.588848485,31.9248919 1.13018182,32.1668113 1.73939394,32.1770694 L4.85672727,32.1770694 L4.85672727,39.4885048 C4.85672727,40.3399242 5.54315152,41.0323435 6.38824242,41.0323435 C6.79127273,41.0323435 7.18666667,40.8673597 7.476,40.5758597 L15.7538182,32.1770694 L28.2477576,32.1770694 C29.5145455,32.1770694 30.5454545,31.1384403 30.5454545,29.8613113 L30.5454545,2.90055323 C30.5454545,1.62427903 29.5145455,0.58565 28.2477576,0.58565" id="Fill-1" fill="#0081FF" mask="url(#mask-2)"></path>
                </g>
                <g id="Group-6" transform="translate(0.000000, 0.035903)">
                    <mask id="mask-4" fill="white">
                        <use xlink:href="#path-3"></use>
                    </mask>
                    <g id="Clip-5"></g>
                    <path d="M22.2139273,28.7953274 L22.2139273,35.279279 L15.8231394,28.7953274 L3.06447273,28.7953274 L3.06447273,3.92721452 L27.575503,3.92721452 L27.575503,11.6994081 L27.575503,28.7953274 L25.0741697,28.7953274 L22.2139273,28.7953274 Z M25.2778061,39.0311661 L25.2778061,31.903521 L27.5746545,31.903521 L28.3416848,31.903521 C29.4506545,31.903521 30.3780485,31.1033919 30.5927152,30.0416823 C30.6232606,29.8903758 30.6402303,29.7330855 30.6402303,29.5723758 L30.6402303,14.2630694 L30.6402303,11.6985532 L30.6402303,3.15016613 C30.6402303,2.98945645 30.6232606,2.83216613 30.5935636,2.68085968 C30.3780485,1.61915 29.4506545,0.819020968 28.3416848,0.819020968 L2.29829091,0.819020968 C1.03065455,0.819020968 -0.000254545455,1.86448871 -0.000254545455,3.15016613 L-0.000254545455,29.5723758 C-0.000254545455,29.5877629 0.00398787879,29.6014403 0.00483636364,29.6168274 C0.0285939394,30.8819887 1.04592727,31.903521 2.29829091,31.903521 L14.5538061,31.903521 L17.2630182,34.6526823 L22.6627758,40.1304887 C22.9495636,40.4219887 23.3398667,40.5852629 23.7462909,40.5852629 C23.851503,40.5852629 23.9550182,40.5750048 24.0542909,40.5536339 C24.3962303,40.4826823 24.691503,40.2911984 24.9095636,40.0304726 C25.1352606,39.7594887 25.2778061,39.413279 25.2778061,39.0311661 Z" id="Fill-4" fill="#0081FF" mask="url(#mask-4)"></path>
                </g>
                <path d="M13.9341576,12.1275968 C14.216703,11.8335323 14.5934303,11.6873548 15.0643394,11.6873548 C16.0562182,11.6873548 16.5525818,12.2327419 16.5525818,13.3226613 C16.5525818,13.6842581 16.4575515,14.0279032 16.2666424,14.3535968 C16.0757333,14.6792903 15.6922182,15.1015806 15.1169455,15.6213226 C14.5408242,16.1402097 14.1454303,16.6685 13.9290667,17.203629 C13.712703,17.7387581 13.6049455,18.4585323 13.6049455,19.3620968 L16.0468848,19.3620968 L16.0850667,18.7714032 C16.1554909,18.1388226 16.432097,17.5874516 16.9148848,17.1164355 L17.6878545,16.3710161 C18.2919758,15.7777581 18.7145212,15.2375 18.9563394,14.7502419 C19.1981576,14.2629839 19.3194909,13.7458065 19.3194909,13.197 C19.3194909,11.9899677 18.9470061,11.0564839 18.2028848,10.3948387 C17.4587636,9.73404839 16.4125818,9.40237097 15.0643394,9.40237097 C13.7288242,9.40237097 12.6750061,9.75114516 11.9020364,10.4486935 C11.1290667,11.1453871 10.7362182,12.1096452 10.7234909,13.3414677 L13.4904,13.3414677 C13.5031273,12.826 13.6516121,12.4208065 13.9341576,12.1275968" id="Fill-7" fill="#E05140"></path>
                <path d="M13.7622545,21.2640274 C13.4729212,21.5444145 13.3278303,21.9008823 13.3278303,22.3334306 C13.3278303,22.7591403 13.4695273,23.110479 13.7529212,23.3883016 C14.0354667,23.6652694 14.4096485,23.8037532 14.8737697,23.8037532 C15.3378909,23.8037532 15.7112242,23.6652694 15.9946182,23.3883016 C16.2771636,23.110479 16.4188606,22.7591403 16.4188606,22.3334306 C16.4188606,21.9008823 16.2746182,21.5444145 15.9852848,21.2640274 C15.6959515,20.9827855 15.3251636,20.8425919 14.8737697,20.8425919 C14.4223758,20.8425919 14.0515879,20.9827855 13.7622545,21.2640274 Z" id="Fill-9" fill="#E05140"></path>
                <path d="M38.3268242,33.4096613 C38.6271879,33.4079516 38.926703,33.2916935 39.1566424,33.0608871 L47.8824606,24.2697258 C48.3414909,23.8072581 48.3440364,23.060129 47.8884,22.6002258 C47.4319152,22.1411774 46.6903394,22.1437419 46.2313091,22.6062097 L38.3370061,30.5604839 L34.6231879,26.8188548 C34.2311879,26.4247742 33.6389455,26.3922903 33.1850061,26.6778065 C33.1111879,26.7248226 33.0314303,26.759871 32.9669455,26.8248387 C32.5079152,27.2873065 32.5053697,28.0344355 32.9610061,28.4934839 L33.1850061,28.7200161 L37.4995515,33.066871 C37.7277939,33.2959677 38.0273091,33.4105161 38.3268242,33.4096613" id="Fill-11" fill="#08B689"></path>
            </g>
        </g>
    </g>
</svg>