<?xml version="1.0" encoding="UTF-8"?>
<svg width="100px" height="100px" viewBox="0 0 100 100" version="1.1" xmlns="http://www.w3.org/2000/svg" xmlns:xlink="http://www.w3.org/1999/xlink">
    <!-- Generator: Sketch 49.3 (51167) - http://www.bohemiancoding.com/sketch -->
    <title>Icon/Features/Single-color/Security</title>
    <desc>Created with Sketch.</desc>
    <defs></defs>
    <g id="Icon/Features/Single-color/Security" stroke="none" stroke-width="1" fill="none" fill-rule="evenodd">
        <path d="M43.3796387,71.9628906 L45.673584,71.9628906 C45.9021008,71.9628906 46.0764154,72.0097652 46.1965332,72.1035156 C46.316651,72.1972661 46.376709,72.3247062 46.376709,72.4858398 C46.376709,72.6293952 46.329102,72.7509761 46.2338867,72.8505859 C46.1386714,72.9501958 45.9943857,73 45.8010254,73 L42.5666504,73 C42.3469227,73 42.1755377,72.9392096 42.0524902,72.817627 C41.9294427,72.6960443 41.8679199,72.5532235 41.8679199,72.3891602 C41.8679199,72.2836909 41.9074703,72.1437997 41.9865723,71.9694824 C42.0656742,71.7951651 42.1520991,71.6582036 42.2458496,71.5585938 C42.6355,71.1542949 42.987059,70.8078628 43.3005371,70.5192871 C43.6140152,70.2307114 43.8381341,70.0410161 43.9729004,69.9501953 C44.213136,69.7802726 44.4130851,69.60962 44.5727539,69.4382324 C44.7324227,69.2668448 44.8540035,69.0910654 44.9375,68.9108887 C45.0209965,68.730712 45.0627441,68.5542001 45.0627441,68.3813477 C45.0627441,68.1938467 45.0180669,68.0261238 44.9287109,67.8781738 C44.839355,67.7302239 44.7177742,67.6152348 44.5639648,67.5332031 C44.4101555,67.4511715 44.2424325,67.4101562 44.060791,67.4101562 C43.677,67.4101562 43.3752452,67.5786116 43.1555176,67.9155273 C43.1262206,67.9594729 43.0771488,68.0795889 43.0083008,68.2758789 C42.9394528,68.472169 42.8618168,68.6230463 42.7753906,68.7285156 C42.6889644,68.8339849 42.5622567,68.8867188 42.3952637,68.8867188 C42.2487786,68.8867188 42.1271977,68.8383794 42.0305176,68.7416992 C41.9338374,68.645019 41.885498,68.5131844 41.885498,68.3461914 C41.885498,68.144042 41.9309077,67.9331066 42.0217285,67.7133789 C42.1125493,67.4936512 42.248046,67.2944345 42.4282227,67.1157227 C42.6083993,66.9370108 42.8369127,66.7927252 43.1137695,66.6828613 C43.3906264,66.5729975 43.715086,66.5180664 44.0871582,66.5180664 C44.5354026,66.5180664 44.917723,66.5883782 45.2341309,66.7290039 C45.43921,66.8227544 45.619384,66.9516593 45.7746582,67.1157227 C45.9299324,67.279786 46.0507808,67.4694813 46.137207,67.6848145 C46.2236332,67.9001476 46.2668457,68.123534 46.2668457,68.3549805 C46.2668457,68.7182635 46.1767587,69.0485825 45.996582,69.3459473 C45.8164053,69.643312 45.6325693,69.8762199 45.4450684,70.0446777 C45.2575674,70.2131356 44.9433616,70.4775373 44.5024414,70.8378906 C44.0615212,71.198244 43.759034,71.4780263 43.5949707,71.6772461 C43.5246579,71.7563481 43.4528812,71.8515619 43.3796387,71.9628906 Z M51.2722168,67.5639648 L48.701416,67.5639648 L48.701416,69.2119141 L50.8503418,69.2119141 C51.0495615,69.2119141 51.1982417,69.2565914 51.2963867,69.3459473 C51.3945317,69.4353032 51.4436035,69.5546868 51.4436035,69.7041016 C51.4436035,69.8535164 51.3937993,69.9721675 51.2941895,70.0600586 C51.1945796,70.1479497 51.0466318,70.1918945 50.8503418,70.1918945 L48.701416,70.1918945 L48.701416,72.3144531 C48.701416,72.5839857 48.6406256,72.7839349 48.519043,72.9143066 C48.3974603,73.0446784 48.241456,73.1098633 48.0510254,73.1098633 C47.857665,73.1098633 47.7001959,73.043946 47.5786133,72.9121094 C47.4570306,72.7802728 47.3962402,72.581056 47.3962402,72.3144531 L47.3962402,67.3574219 C47.3962402,67.1699209 47.424072,67.0168463 47.4797363,66.8981934 C47.5354007,66.7795404 47.622558,66.6931155 47.7412109,66.638916 C47.8598639,66.5847165 48.0114737,66.5576172 48.1960449,66.5576172 L51.2722168,66.5576172 C51.4802256,66.5576172 51.6347651,66.6037593 51.7358398,66.6960449 C51.8369146,66.7883305 51.8874512,66.9091789 51.8874512,67.0585938 C51.8874512,67.2109383 51.8369146,67.3332515 51.7358398,67.4255371 C51.6347651,67.5178227 51.4802256,67.5639648 51.2722168,67.5639648 Z M56.9807129,72.2705078 L56.6730957,71.4619141 L54.0539551,71.4619141 L53.7463379,72.2880859 C53.6262201,72.6103532 53.5236821,72.8278803 53.4387207,72.9406738 C53.3537593,73.0534674 53.2146006,73.1098633 53.0212402,73.1098633 C52.8571769,73.1098633 52.7121588,73.0498053 52.5861816,72.9296875 C52.4602044,72.8095697 52.3972168,72.6733406 52.3972168,72.5209961 C52.3972168,72.433105 52.4118651,72.3422856 52.4411621,72.2485352 C52.4704591,72.1547847 52.5187985,72.0244149 52.5861816,71.8574219 L54.2341309,67.6738281 C54.2810061,67.5537103 54.337402,67.4094247 54.4033203,67.2409668 C54.4692386,67.0725089 54.5395504,66.9326177 54.6142578,66.8212891 C54.6889652,66.7099604 54.7871088,66.6198734 54.9086914,66.5510254 C55.030274,66.4821774 55.180419,66.4477539 55.3591309,66.4477539 C55.5407724,66.4477539 55.6923822,66.4821774 55.8139648,66.5510254 C55.9355475,66.6198734 56.033691,66.7084956 56.1083984,66.8168945 C56.1831058,66.9252935 56.2460935,67.0417474 56.2973633,67.1662598 C56.3486331,67.2907721 56.413818,67.4570302 56.4929199,67.6650391 L58.1760254,71.8222656 C58.307862,72.1386735 58.3737793,72.3686516 58.3737793,72.512207 C58.3737793,72.6616218 58.3115241,72.7985834 58.1870117,72.9230957 C58.0624994,73.047608 57.9123544,73.1098633 57.7365723,73.1098633 C57.6340327,73.1098633 57.5461429,73.0915529 57.4729004,73.0549316 C57.3996578,73.0183104 57.338135,72.9685062 57.2883301,72.9055176 C57.2385251,72.842529 57.1850589,72.7458503 57.1279297,72.6154785 C57.0708005,72.4851068 57.0217287,72.3701177 56.9807129,72.2705078 Z M54.3967285,70.4819336 L56.3215332,70.4819336 L55.3503418,67.8232422 L54.3967285,70.4819336 Z M37,64 L63,64 C64.1045695,64 65,64.8954305 65,66 L65,74 C65,75.1045695 64.1045695,76 63,76 L37,76 C35.8954305,76 35,75.1045695 35,74 L35,66 C35,64.8954305 35.8954305,64 37,64 Z" id="Combined-Shape" fill="#08B689"></path>
        <path d="M40.625,37.143319 L40.625,32.4288793 C40.625,27.2214531 44.8223305,23 50,23 C55.1776695,23 59.375,27.2214531 59.375,32.4288793 L59.375,37.143319 L62.4285714,37.143319 C63.8487322,37.143319 65,38.2945868 65,39.7147475 L65,59.0869766 C65,60.5071374 63.8487322,61.6584052 62.4285714,61.6584052 L37.5714286,61.6584052 C36.1512678,61.6584052 35,60.5071374 35,59.0869766 L35,39.7147475 C35,38.2945868 36.1512678,37.143319 37.5714286,37.143319 L40.625,37.143319 Z M48.3125,47.8924485 L48.3125,54.6907328 C48.3125,55.6227133 49.0680195,56.3782328 50,56.3782328 C50.9319805,56.3782328 51.6875,55.6227133 51.6875,54.6907328 L51.6875,47.8924485 C52.3706263,47.3763835 52.8125,46.5547461 52.8125,45.6293103 C52.8125,44.0670825 51.5533009,42.8006466 50,42.8006466 C48.4466991,42.8006466 47.1875,44.0670825 47.1875,45.6293103 C47.1875,46.5547461 47.6293737,47.3763835 48.3125,47.8924485 Z M56.5625,37.143319 L56.5625,32.4288793 C56.5625,28.7836809 53.6243687,25.8286638 50,25.8286638 C46.3756313,25.8286638 43.4375,28.7836809 43.4375,32.4288793 L43.4375,37.143319 L56.5625,37.143319 Z" id="Combined-Shape" fill="#0081FF"></path>
    </g>
</svg>