<?xml version="1.0" encoding="UTF-8"?>
<svg width="100px" height="100px" viewBox="0 0 100 100" version="1.1" xmlns="http://www.w3.org/2000/svg" xmlns:xlink="http://www.w3.org/1999/xlink">
    <!-- Generator: Sketch 49.3 (51167) - http://www.bohemiancoding.com/sketch -->
    <title>Icon/Features/Single-color/Signalling</title>
    <desc>Created with Sketch.</desc>
    <defs></defs>
    <g id="Icon/Features/Single-color/Signalling" stroke="none" stroke-width="1" fill="none" fill-rule="evenodd">
        <g id="Group-4" transform="translate(18.000000, 27.000000)">
            <g id="Group-2" transform="translate(0.000000, 19.525424)" stroke-linecap="round" stroke-linejoin="round" stroke-width="3">
                <path d="M2.4375,17.0847458 L2.4375,26.8474576" id="Path-5-Copy-2" stroke="#E05140"></path>
                <path d="M8.9375,4.88135593 L8.9375,17.8983051" id="Path-5-Copy-3" stroke="#08B689"></path>
                <path d="M15.4375,9.76271186 L15.4375,18.7118644" id="Path-5-Copy-4" stroke="#E05140"></path>
                <path d="M21.9375,5.69491525 L21.9375,8.94915254" id="Path-5-Copy-5" stroke="#E05140"></path>
                <path d="M28.4375,5.69491525 L28.4375,9.76271186" id="Path-5-Copy-6" stroke="#08B689"></path>
                <path d="M22.75,0.813559322 L29.25,0.813559322" id="Path-4" stroke="#0081FF"></path>
                <path d="M34.125,0.813559322 L40.625,0.813559322" id="Path-4-Copy" stroke="#0081FF"></path>
                <path d="M0,0.813559322 L6.5,0.813559322" id="Path-4-Copy-4" stroke="#0081FF"></path>
                <path d="M11.375,0.813559322 L17.875,0.813559322" id="Path-4-Copy-3" stroke="#0081FF"></path>
                <path d="M26.1003317,13.5434338 L32.6003317,13.5434338" id="Path-4-Copy-5" stroke="#0081FF" transform="translate(29.350332, 13.543434) rotate(-33.000000) translate(-29.350332, -13.543434) "></path>
                <path d="M35.6402094,7.34816476 L42.1402094,7.34816476" id="Path-4-Copy-7" stroke="#0081FF" transform="translate(38.890209, 7.348165) rotate(-33.000000) translate(-38.890209, -7.348165) "></path>
                <path d="M7.02057627,25.9339718 L13.5205763,25.9339718" id="Path-4-Copy-8" stroke="#0081FF" transform="translate(10.270576, 25.933972) rotate(-33.000000) translate(-10.270576, -25.933972) "></path>
                <path d="M16.560454,19.7387028 L23.060454,19.7387028" id="Path-4-Copy-9" stroke="#0081FF" transform="translate(19.810454, 19.738703) rotate(-33.000000) translate(-19.810454, -19.738703) "></path>
            </g>
            <g id="Group-3" transform="translate(38.187500, 0.000000)" fill="#0081FF">
                <path d="M25.59375,11.3898305 C26.266847,11.3898305 26.8125,11.9361949 26.8125,12.6101695 C26.8125,13.2841441 26.266847,13.8305085 25.59375,13.8305085 C20.8820707,13.8305085 17.0625,17.6550591 17.0625,22.3728814 C17.0625,23.046856 16.516847,23.5932203 15.84375,23.5932203 C15.170653,23.5932203 14.625,23.046856 14.625,22.3728814 C14.625,16.3071099 19.5358767,11.3898305 25.59375,11.3898305 Z M25.59375,5.69491525 C26.266847,5.69491525 26.8125,6.24127963 26.8125,6.91525424 C26.8125,7.58922885 26.266847,8.13559322 25.59375,8.13559322 C17.7409512,8.13559322 11.375,14.5098442 11.375,22.3728814 C11.375,23.046856 10.829347,23.5932203 10.15625,23.5932203 C9.48315296,23.5932203 8.9375,23.046856 8.9375,22.3728814 C8.9375,13.161895 16.3947571,5.69491525 25.59375,5.69491525 Z M25.1875,0 C25.860597,0 26.40625,0.546364373 26.40625,1.22033898 C26.40625,1.89431359 25.860597,2.44067797 25.1875,2.44067797 C14.4179474,2.44067797 5.6875,11.1825079 5.6875,21.9661017 C5.6875,22.6400763 5.14184704,23.1864407 4.46875,23.1864407 C3.79565296,23.1864407 3.25,22.6400763 3.25,21.9661017 C3.25,9.83455872 13.0717533,0 25.1875,0 Z" id="Combined-Shape" fill-rule="nonzero" transform="translate(15.031250, 11.796610) rotate(90.000000) translate(-15.031250, -11.796610) "></path>
                <ellipse id="Oval-5" cx="4.875" cy="21.9661017" rx="4.875" ry="4.88135593"></ellipse>
            </g>
        </g>
    </g>
</svg>