<?xml version="1.0" encoding="UTF-8"?>
<svg width="100px" height="100px" viewBox="0 0 100 100" version="1.1" xmlns="http://www.w3.org/2000/svg" xmlns:xlink="http://www.w3.org/1999/xlink">
    <!-- Generator: Sketch 49.3 (51167) - http://www.bohemiancoding.com/sketch -->
    <title>Icon/Features/Single-color/Stoploss</title>
    <desc>Created with Sketch.</desc>
    <defs></defs>
    <g id="Icon/Features/Single-color/Stoploss" stroke="none" stroke-width="1" fill="none" fill-rule="evenodd">
        <g id="Page-1" transform="translate(18.000000, 21.000000)">
            <path d="M58.3489885,25.9541222 C58.5173869,26.5868255 59.0595038,27 59.6475475,27 C59.7700191,27 59.8942917,26.9827445 60.0176638,26.9453574 C60.7344828,26.7287045 61.1514265,25.9339907 60.9488081,25.1699534 L59.5710028,20 C58.7866443,20.4505615 57.9176364,20.7525336 57,20.8867434 L58.3489885,25.9541222 Z" id="Fill-1" fill="#E05140"></path>
            <path d="M63.0937278,31.0673199 C62.8551704,30.2863825 61.9808105,29.836218 61.1463853,30.0554285 C60.3098583,30.2765963 59.8232854,31.0878709 60.0597409,31.8678297 L61.9061957,37.933306 C62.1037674,38.5791941 62.7353663,39 63.4216127,39 C63.5645369,39 63.709563,38.9823849 63.8535381,38.9451974 C64.6911161,38.723051 65.176638,37.9117764 64.9401825,37.1318176 L63.0937278,31.0673199 Z" id="Fill-3" fill="#E05140"></path>
            <path d="M35.4959609,16 L42.5040391,16 C43.3298095,16 44,15.329 44,14.5 C44,13.671 43.3298095,13 42.5040391,13 L35.4959609,13 C34.6701905,13 34,13.671 34,14.5 C34,15.329 34.6701905,16 35.4959609,16" id="Fill-5" fill="#08B689"></path>
            <path d="M59.4959609,16 L66.5040391,16 C67.3298095,16 68,15.329 68,14.5 C68,13.671 67.3298095,13 66.5040391,13 L59.4959609,13 C58.6701905,13 58,13.671 58,14.5 C58,15.329 58.6701905,16 59.4959609,16" id="Fill-5" fill="#08B689"></path>
            <g id="Group-12" fill="#0081FF">
                <path d="M53.4665431,1.93438793 C53.2854224,1.37206034 52.77525,0.980422414 52.1844741,0.950077586 C51.59275,0.915939655 51.0474914,1.25731897 50.8104224,1.79878448 L45.9874914,12.7684397 C45.40525,12.9467155 44.9794741,13.4815431 44.9794741,14.1225776 C44.9794741,14.3435259 45.0335259,14.5493017 45.1226638,14.7361121 L36.1462845,35.1543879 L28.4718879,30.5324914 C27.8014569,30.1294741 26.9280948,30.3428362 26.5212845,31.0142155 L16.8175776,47.0305948 L9.36887069,43.4793017 C8.78188793,43.2014569 8.07921552,43.353181 7.66292241,43.8538707 L0.328956897,52.6680948 C-0.17362931,53.2721466 -0.0911293103,54.1682672 0.512922414,54.6708534 C0.778439655,54.89275 1.10085345,54.9999052 1.42137069,54.9999052 C1.82912931,54.9999052 2.23499138,54.8254224 2.51568103,54.4868879 L9.14223276,46.5232672 L16.7549914,50.152319 C17.4130948,50.46525 18.2049052,50.2291293 18.5832672,49.6051638 L28.2196466,33.7016293 L36.0637845,38.4268879 C36.4146466,38.6364569 36.8385259,38.6876638 37.2282672,38.5634397 C37.6170603,38.4401638 37.9347328,38.1537845 38.0997328,37.7801638 L47.5379224,16.3111983 C47.154819,15.3733534 46.9395603,14.3492155 46.9395603,13.2757672 C46.9395603,8.98956034 50.3059397,5.48378448 54.5324052,5.23912931 L53.4665431,1.93438793 Z" id="Fill-10"></path>
            </g>
            <path d="M30.5040391,16 C31.3298095,16 32,15.329 32,14.5 C32,13.671 31.3298095,13 30.5040391,13 L23.4959609,13 C22.6691932,13 22,13.671 22,14.5 C22,15.329 22.6691932,16 23.4959609,16 L30.5040391,16 Z" id="Fill-13" fill="#08B689"></path>
            <path d="M54.5,17.2941176 C52.9587647,17.2941176 51.7058824,16.0401176 51.7058824,14.5 C51.7058824,12.9598824 52.9587647,11.7058824 54.5,11.7058824 C56.0412353,11.7058824 57.2941176,12.9598824 57.2941176,14.5 C57.2941176,16.0401176 56.0412353,17.2941176 54.5,17.2941176 M63.9653529,13.8215882 C63.6155294,8.89947059 59.5081765,5 54.5,5 C54.3144706,5 54.1322941,5.01788235 53.949,5.02794118 C48.9676471,5.31629412 45,9.44711765 45,14.5 C45,15.7651765 45.2537059,16.9722353 45.7052353,18.0775882 C47.1212941,21.5467647 50.5278824,24 54.5,24 C54.9425882,24 55.3762353,23.9586471 55.8042941,23.8994118 C56.9442941,23.7429412 58.0217059,23.3908824 58.9951765,22.8655882 C61.207,21.6719412 62.8890588,19.6277647 63.6099412,17.1745294 C63.8602941,16.3251176 64,15.4298824 64,14.5 C64,14.2708824 63.981,14.0462353 63.9653529,13.8215882" id="Fill-15" fill="#0081FF"></path>
        </g>
    </g>
</svg>