<?xml version="1.0" encoding="UTF-8"?>
<svg width="1440px" height="260px" viewBox="0 0 1440 260" version="1.1" xmlns="http://www.w3.org/2000/svg" xmlns:xlink="http://www.w3.org/1999/xlink">
    <!-- Generator: Sketch 49.3 (51167) - http://www.bohemiancoding.com/sketch -->
    <title>newsletter-bg</title>
    <desc>Created with Sketch.</desc>
    <defs>
        <rect id="path-1" x="0" y="0" width="1751" height="260"></rect>
    </defs>
    <g id="iPad-Portrait" stroke="none" stroke-width="1" fill="none" fill-rule="evenodd">
        <g id="Moon-Landing-Page-2.0" transform="translate(0.000000, -7492.000000)">
            <g id="newsletter-bg" transform="translate(-142.000000, 7492.000000)">
                <mask id="mask-2" fill="white">
                    <use xlink:href="#path-1"></use>
                </mask>
                <use id="Mask" fill="#091326" xlink:href="#path-1"></use>
                <g id="Stars-Copy" mask="url(#mask-2)" fill="#2C4B7A" fill-rule="nonzero">
                    <g transform="translate(159.000000, -113.000000)" id="Shape">
                        <polygon points="954.87931 339 953.741379 334.368421 949 333.789474 953.551724 332.631579 954.12069 328 955.258621 332.438596 960 333.017544 955.448276 334.175439"></polygon>
                        <polygon points="1247.98246 261 1246.82456 256.368421 1242 255.789474 1246.63158 254.631579 1247.21053 250 1248.36842 254.438596 1253 255.017544 1248.5614 256.175439"></polygon>
                        <polygon points="1164.98246 162 1163.82456 157.368421 1159 156.789474 1163.63158 155.631579 1164.21053 151 1165.36842 155.438596 1170 156.017544 1165.5614 157.175439"></polygon>
                        <polygon points="1164.98246 306 1163.82456 301.368421 1159 300.789474 1163.63158 299.631579 1164.21053 295 1165.36842 299.438596 1170 300.017544 1165.5614 301.175439"></polygon>
                        <polygon points="1061.98246 144 1060.82456 139.368421 1056 138.789474 1060.63158 137.631579 1061.21053 133 1062.36842 137.438596 1067 138.017544 1062.5614 139.175439"></polygon>
                        <polygon points="614.982456 140 613.631579 135.368421 609 134.982456 613.631579 133.824561 614.017544 129 615.368421 133.631579 620 134.210526 615.368421 135.368421"></polygon>
                        <polygon points="1032.78947 258 1031.63158 253.368421 1027 252.982456 1031.4386 251.631579 1032.01754 247 1033.17544 251.631579 1038 252.017544 1033.36842 253.368421"></polygon>
                        <polygon points="669.789474 252 668.631579 247.368421 664 246.982456 668.438596 245.631579 669.017544 241 670.175439 245.631579 675 246.017544 670.368421 247.368421"></polygon>
                        <polygon points="805.789474 263 804.631579 258.368421 800 257.982456 804.438596 256.631579 805.017544 252 806.175439 256.631579 811 257.017544 806.368421 258.368421"></polygon>
                        <polygon points="686.789474 136 685.631579 131.368421 681 130.982456 685.438596 129.631579 686.017544 125 687.175439 129.631579 692 130.017544 687.368421 131.368421"></polygon>
                        <polygon points="601.789474 251 600.631579 246.368421 596 245.982456 600.438596 244.631579 601.017544 240 602.175439 244.631579 607 245.017544 602.368421 246.368421"></polygon>
                        <polygon points="1180.78947 232 1179.63158 227.368421 1175 226.982456 1179.4386 225.631579 1180.01754 221 1181.17544 225.631579 1186 226.017544 1181.36842 227.368421"></polygon>
                        <polygon points="1023.98246 166 1022.82456 161.368421 1018 160.789474 1022.63158 159.631579 1023.21053 155 1024.36842 159.438596 1029 160.017544 1024.5614 161.175439"></polygon>
                        <polygon points="933.982456 126 932.824561 121.368421 928 120.982456 932.631579 119.631579 933.210526 115 934.368421 119.631579 939 120.017544 934.561404 121.368421"></polygon>
                        <polygon points="1126.78947 197 1125.63158 192.368421 1121 191.982456 1125.4386 190.631579 1126.01754 186 1127.17544 190.631579 1132 191.017544 1127.36842 192.368421"></polygon>
                        <polygon points="484.87931 261 483.741379 256.368421 479 255.789474 483.551724 254.631579 484.12069 250 485.258621 254.438596 490 255.017544 485.448276 256.175439"></polygon>
                        <polygon points="496.982456 182 495.824561 177.368421 491 176.789474 495.631579 175.631579 496.210526 171 497.368421 175.438596 502 176.017544 497.561404 177.175439"></polygon>
                        <polygon points="580.982456 124 579.824561 119.368421 575 118.789474 579.631579 117.631579 580.210526 113 581.368421 117.438596 586 118.017544 581.561404 119.175439"></polygon>
                        <polygon points="580.982456 268 579.824561 263.368421 575 262.789474 579.631579 261.631579 580.210526 257 581.368421 261.438596 586 262.017544 581.561404 263.175439"></polygon>
                        <polygon points="449.789474 221 448.631579 216.368421 444 215.982456 448.438596 214.631579 449.017544 210 450.175439 214.631579 455 215.017544 450.368421 216.368421"></polygon>
                        <polygon points="114.789474 326 113.631579 321.368421 109 320.982456 113.438596 319.631579 114.017544 315 115.175439 319.631579 120 320.017544 115.368421 321.368421"></polygon>
                        <polygon points="86.7894737 214 85.6315789 209.368421 81 208.982456 85.4385965 207.631579 86.0175439 203 87.1754386 207.631579 92 208.017544 87.3684211 209.368421"></polygon>
                        <polygon points="35.7894737 318 34.6315789 313.368421 30 312.982456 34.4385965 311.631579 35.0175439 307 36.1754386 311.631579 41 312.017544 36.3684211 313.368421"></polygon>
                        <polygon points="536.789474 328 535.631579 323.368421 531 322.982456 535.438596 321.631579 536.017544 317 537.175439 321.631579 542 322.017544 537.368421 323.368421"></polygon>
                        <polygon points="19.7894737 213 18.6315789 208.368421 14 207.982456 18.4385965 206.631579 19.0175439 202 20.1754386 206.631579 25 207.017544 20.3684211 208.368421"></polygon>
                        <polygon points="596.789474 194 595.631579 189.368421 591 188.982456 595.438596 187.631579 596.017544 183 597.175439 187.631579 602 188.017544 597.368421 189.368421"></polygon>
                        <polygon points="223.87931 370 222.741379 365.448276 218 364.87931 222.551724 363.741379 223.12069 359 224.258621 363.551724 229 364.12069 224.448276 365.258621"></polygon>
                        <polygon points="440.982456 128 439.824561 123.368421 435 122.789474 439.631579 121.631579 440.210526 117 441.368421 121.438596 446 122.017544 441.561404 123.175439"></polygon>
                        <polygon points="542.789474 158 541.631579 153.368421 537 152.982456 541.438596 151.631579 542.017544 147 543.175439 151.631579 548 152.017544 543.368421 153.368421"></polygon>
                        <polygon points="1295.78947 364 1294.63158 359.368421 1290 358.982456 1294.4386 357.631579 1295.01754 353 1296.17544 357.631579 1301 358.017544 1296.36842 359.368421"></polygon>
                        <polygon points="1077.78947 367 1076.63158 362.368421 1072 361.982456 1076.4386 360.631579 1077.01754 356 1078.17544 360.631579 1083 361.017544 1078.36842 362.368421"></polygon>
                        <polygon points="1083.78947 230 1082.63158 225.368421 1078 224.982456 1082.4386 223.631579 1083.01754 219 1084.17544 223.631579 1089 224.017544 1084.36842 225.368421"></polygon>
                        <polygon points="1065.78947 188 1064.63158 183.368421 1060 182.982456 1064.4386 181.631579 1065.01754 177 1066.17544 181.631579 1071 182.017544 1066.36842 183.368421"></polygon>
                        <polygon points="1014.78947 292 1013.63158 287.368421 1009 286.982456 1013.4386 285.631579 1014.01754 281 1015.17544 285.631579 1020 286.017544 1015.36842 287.368421"></polygon>
                        <polygon points="1004.78947 216 1003.63158 211.368421 999 210.982456 1003.4386 209.631579 1004.01754 205 1005.17544 209.631579 1010 210.017544 1005.36842 211.368421"></polygon>
                        <polygon points="1202.87931 353 1201.74138 348.448276 1197 347.87931 1201.55172 346.741379 1202.12069 342 1203.25862 346.551724 1208 347.12069 1203.44828 348.258621"></polygon>
                        <polygon points="985.982456 360 984.824561 355.368421 980 354.789474 984.631579 353.631579 985.210526 349 986.368421 353.438596 991 354.017544 986.561404 355.175439"></polygon>
                        <polygon points="1303.98246 206 1302.63158 201.368421 1298 200.982456 1302.63158 199.824561 1303.01754 195 1304.36842 199.631579 1309 200.210526 1304.36842 201.368421"></polygon>
                        <polygon points="1360.78947 317 1359.63158 312.368421 1355 311.982456 1359.4386 310.631579 1360.01754 306 1361.17544 310.631579 1366 311.017544 1361.36842 312.368421"></polygon>
                        <polygon points="1377.78947 203 1376.63158 198.368421 1372 197.982456 1376.4386 196.631579 1377.01754 192 1378.17544 196.631579 1383 197.017544 1378.36842 198.368421"></polygon>
                        <polygon points="1292.78947 317 1291.63158 312.368421 1287 311.982456 1291.4386 310.631579 1292.01754 306 1293.17544 310.631579 1298 311.017544 1293.36842 312.368421"></polygon>
                        <polygon points="1315.78947 144 1314.63158 139.368421 1310 138.982456 1314.4386 137.631579 1315.01754 133 1316.17544 137.631579 1321 138.017544 1316.36842 139.368421"></polygon>
                        <polygon points="850.87931 245 849.741379 240.368421 845 239.789474 849.551724 238.631579 850.12069 234 851.258621 238.438596 856 239.017544 851.448276 240.175439"></polygon>
                        <polygon points="861.982456 165 860.824561 160.368421 856 159.789474 860.631579 158.631579 861.210526 154 862.368421 158.438596 867 159.017544 862.561404 160.175439"></polygon>
                        <polygon points="716.982456 215 715.824561 210.368421 711 209.789474 715.631579 208.631579 716.210526 204 717.368421 208.438596 722 209.017544 717.561404 210.175439"></polygon>
                        <polygon points="945.982456 251 944.824561 246.368421 940 245.789474 944.631579 244.631579 945.210526 240 946.368421 244.438596 951 245.017544 946.561404 246.175439"></polygon>
                        <polygon points="814.789474 204 813.631579 199.368421 809 198.982456 813.438596 197.631579 814.017544 193 815.175439 197.631579 820 198.017544 815.368421 199.368421"></polygon>
                        <polygon points="680.789474 368 679.631579 363.368421 675 362.982456 679.438596 361.631579 680.017544 357 681.175439 361.631579 686 362.017544 681.368421 363.368421"></polygon>
                        <polygon points="502.789474 370 501.631579 365.368421 497 364.982456 501.438596 363.631579 502.017544 359 503.175439 363.631579 508 364.017544 503.368421 365.368421"></polygon>
                        <polygon points="480.789474 310 479.631579 305.368421 475 304.982456 479.438596 303.631579 480.017544 299 481.175439 303.631579 486 304.017544 481.368421 305.368421"></polygon>
                        <polygon points="451.789474 198 450.631579 193.368421 446 192.982456 450.438596 191.631579 451.017544 187 452.175439 191.631579 457 192.017544 452.368421 193.368421"></polygon>
                        <polygon points="400.789474 302 399.631579 297.368421 395 296.982456 399.438596 295.631579 400.017544 291 401.175439 295.631579 406 296.017544 401.368421 297.368421"></polygon>
                        <polygon points="754.789474 329 753.631579 324.368421 749 323.982456 753.438596 322.631579 754.017544 318 755.175439 322.631579 760 323.017544 755.368421 324.368421"></polygon>
                        <polygon points="384.789474 197 383.631579 192.368421 379 191.982456 383.438596 190.631579 384.017544 186 385.175439 190.631579 390 191.017544 385.368421 192.368421"></polygon>
                        <polygon points="961.789474 178 960.631579 173.368421 956 172.982456 960.438596 171.631579 961.017544 167 962.175439 171.631579 967 172.017544 962.368421 173.368421"></polygon>
                        <polygon points="907.789474 143 906.631579 138.368421 902 137.982456 906.438596 136.631579 907.017544 132 908.175439 136.631579 913 137.017544 908.368421 138.368421"></polygon>
                    </g>
                </g>
            </g>
        </g>
    </g>
</svg>