<?xml version="1.0" encoding="UTF-8"?>
<svg width="128px" height="70px" viewBox="0 0 128 70" version="1.1" xmlns="http://www.w3.org/2000/svg" xmlns:xlink="http://www.w3.org/1999/xlink">
    <!-- Generator: Sketch 49.3 (51167) - http://www.bohemiancoding.com/sketch -->
    <title>MA-Icon</title>
    <desc>Created with Sketch.</desc>
    <defs>
        <linearGradient x1="0%" y1="50%" x2="55.8398032%" y2="50%" id="linearGradient-1">
            <stop stop-color="#C1C1C1" offset="0%"></stop>
            <stop stop-color="#FFFFFF" offset="100%"></stop>
        </linearGradient>
    </defs>
    <g id="iPad-Portrait" stroke="none" stroke-width="1" fill="none" fill-rule="evenodd">
        <g id="About-2.0" transform="translate(-627.000000, -289.000000)">
            <g id="MA-Icon" transform="translate(627.000000, 289.000000)">
                <g>
                    <path d="M105.480447,16.848868 L127.525119,60.7004795 C128.807109,63.9404752 127.420769,67.6794489 124.242774,69.2738526 C120.878903,70.9615106 116.781496,69.6073147 115.090959,66.2491714 L108.028673,52.22039 L77.2867694,52.22039 L70.2252285,66.2476916 C69.0138448,68.6540281 66.5666076,70.0313997 64.0389831,69.9979238 C61.4838318,70.061086 58.9986067,68.680242 57.7747715,66.2491714 L35.3415337,21.6869725 L12.9090409,66.2476916 C11.2185043,69.6058349 7.12109727,70.9600308 3.75722615,69.2723727 C0.393355036,67.5847147 -0.96315062,63.4942845 0.72738597,60.1361412 L29.1125455,3.75082858 C30.336847,1.3188317 32.8234998,-0.0621381108 35.3796779,0.00214904753 C37.909197,-0.0333400093 40.3590297,1.34427649 41.5712669,3.75230843 L63.9996275,48.3048191 L86.4287331,3.75082858 C87.6530345,1.3188317 90.1396874,-0.0621381108 92.6958655,0.00214904753 C95.2253846,-0.0333400093 97.6752173,1.34427649 98.8874545,3.75230843 L105.480447,16.848868 Z M84.1383596,38.6101422 L101.177083,38.6101422 L92.6577213,21.6869725 L84.1383596,38.6101422 Z" id="Combined-Shape" fill="#FFFFFF"></path>
                    <path d="M84.254629,37.9166667 L110.085932,37.9166667 C113.553012,37.9166667 116.363636,41.181257 116.363636,45.2083333 C116.363636,49.2354096 113.553012,52.5 110.085932,52.5 L77.0909091,52.5 L84.254629,37.9166667 Z" id="Gradient" fill="url(#linearGradient-1)" fill-rule="nonzero"></path>
                </g>
            </g>
        </g>
    </g>
</svg>