<?xml version="1.0" standalone="no"?>
<!DOCTYPE svg PUBLIC "-//W3C//DTD SVG 20010904//EN"
 "http://www.w3.org/TR/2001/REC-SVG-20010904/DTD/svg10.dtd">
<svg version="1.0" xmlns="http://www.w3.org/2000/svg"
 width="260.000000pt" height="260.000000pt" viewBox="0 0 260.000000 260.000000"
 preserveAspectRatio="xMidYMid meet">
<metadata>
Created by potrace 1.11, written by Peter Selinger 2001-2013
</metadata>
<g transform="translate(0.000000,260.000000) scale(0.100000,-0.100000)"
fill="#000000" stroke="none">
<path d="M657 1967 c-32 -13 -36 -21 -259 -457 -72 -140 -150 -291 -173 -335
-23 -44 -79 -153 -125 -243 -92 -184 -96 -205 -38 -261 54 -53 154 -65 190
-23 15 16 57 95 263 497 187 364 208 405 210 402 7 -8 89 -165 205 -392 294
-576 266 -535 372 -531 45 1 73 7 85 18 10 9 56 91 103 182 l85 166 290 0 290
0 85 -166 c47 -91 95 -174 108 -184 32 -26 110 -20 154 11 44 31 56 48 64 86
6 34 -20 90 -211 458 -34 66 -109 210 -165 320 -237 461 -223 437 -257 451
-18 8 -51 14 -73 14 -76 0 -89 -14 -179 -192 -46 -90 -100 -194 -121 -233 -20
-38 -88 -170 -150 -292 -63 -122 -115 -221 -116 -220 -3 4 -122 234 -264 512
-193 377 -204 396 -231 411 -30 17 -105 17 -142 1z m1310 -612 l71 -140 -173
0 -173 0 85 168 86 168 16 -28 c10 -15 49 -91 88 -168z"/>
</g>
</svg>
