<?xml version="1.0" encoding="UTF-8"?>
<svg width="1424px" height="1008px" viewBox="0 0 1424 1008" version="1.1" xmlns="http://www.w3.org/2000/svg" xmlns:xlink="http://www.w3.org/1999/xlink">
    <!-- Generator: Sketch 49.3 (51167) - http://www.bohemiancoding.com/sketch -->
    <title>Group 13</title>
    <desc>Created with Sketch.</desc>
    <defs></defs>
    <g id="iPad-Portrait" stroke="none" stroke-width="1" fill="none" fill-rule="evenodd">
        <g id="About-2.0" fill-rule="nonzero">
            <g id="Group-13" transform="translate(-247.000000, -10.000000)">
                <g id="Stars" fill="#2C4B7A">
                    <polygon id="Shape" points="954.87931 339 953.741379 334.368421 949 333.789474 953.551724 332.631579 954.12069 328 955.258621 332.438596 960 333.017544 955.448276 334.175439"></polygon>
                    <polygon id="Shape" points="1247.98246 261 1246.82456 256.368421 1242 255.789474 1246.63158 254.631579 1247.21053 250 1248.36842 254.438596 1253 255.017544 1248.5614 256.175439"></polygon>
                    <polygon id="Shape" points="1164.98246 162 1163.82456 157.368421 1159 156.789474 1163.63158 155.631579 1164.21053 151 1165.36842 155.438596 1170 156.017544 1165.5614 157.175439"></polygon>
                    <polygon id="Shape" points="1164.98246 306 1163.82456 301.368421 1159 300.789474 1163.63158 299.631579 1164.21053 295 1165.36842 299.438596 1170 300.017544 1165.5614 301.175439"></polygon>
                    <polygon id="Shape" points="1061.98246 144 1060.82456 139.368421 1056 138.789474 1060.63158 137.631579 1061.21053 133 1062.36842 137.438596 1067 138.017544 1062.5614 139.175439"></polygon>
                    <polygon id="Shape" points="614.982456 140 613.631579 135.368421 609 134.982456 613.631579 133.824561 614.017544 129 615.368421 133.631579 620 134.210526 615.368421 135.368421"></polygon>
                    <polygon id="Shape" points="915.789474 75 914.631579 70.3684211 910 69.9824561 914.438596 68.6315789 915.017544 64 916.175439 68.6315789 921 69.0175439 916.368421 70.3684211"></polygon>
                    <polygon id="Shape" points="1030.78947 93 1029.63158 88.3684211 1025 87.9824561 1029.4386 86.6315789 1030.01754 82 1031.17544 86.6315789 1036 87.0175439 1031.36842 88.3684211"></polygon>
                    <polygon id="Shape" points="1032.78947 258 1031.63158 253.368421 1027 252.982456 1031.4386 251.631579 1032.01754 247 1033.17544 251.631579 1038 252.017544 1033.36842 253.368421"></polygon>
                    <polygon id="Shape" points="898.789474 428 897.631579 423.368421 893 422.982456 897.438596 421.631579 898.017544 417 899.175439 421.631579 904 422.017544 899.368421 423.368421"></polygon>
                    <polygon id="Shape" points="719.789474 430 718.631579 425.368421 714 424.982456 718.438596 423.631579 719.017544 419 720.175439 423.631579 725 424.017544 720.368421 425.368421"></polygon>
                    <polygon id="Shape" points="669.789474 252 668.631579 247.368421 664 246.982456 668.438596 245.631579 669.017544 241 670.175439 245.631579 675 246.017544 670.368421 247.368421"></polygon>
                    <polygon id="Shape" points="805.789474 263 804.631579 258.368421 800 257.982456 804.438596 256.631579 805.017544 252 806.175439 256.631579 811 257.017544 806.368421 258.368421"></polygon>
                    <polygon id="Shape" points="1095.78947 449 1094.63158 444.368421 1090 443.982456 1094.4386 442.631579 1095.01754 438 1096.17544 442.631579 1101 443.017544 1096.36842 444.368421"></polygon>
                    <polygon id="Shape" points="1145.78947 397 1144.63158 392.368421 1140 391.982456 1144.4386 390.631579 1145.01754 386 1146.17544 390.631579 1151 391.017544 1146.36842 392.368421"></polygon>
                    <polygon id="Shape" points="686.789474 136 685.631579 131.368421 681 130.982456 685.438596 129.631579 686.017544 125 687.175439 129.631579 692 130.017544 687.368421 131.368421"></polygon>
                    <polygon id="Shape" points="601.789474 251 600.631579 246.368421 596 245.982456 600.438596 244.631579 601.017544 240 602.175439 244.631579 607 245.017544 602.368421 246.368421"></polygon>
                    <polygon id="Shape" points="626.789474 79 625.631579 74.3684211 621 73.9824561 625.438596 72.6315789 626.017544 68 627.175439 72.6315789 632 73.0175439 627.368421 74.3684211"></polygon>
                    <polygon id="Shape" points="754.789474 85 753.631579 80.3684211 749 79.9824561 753.438596 78.6315789 754.017544 74 755.175439 78.6315789 760 79.0175439 755.368421 80.3684211"></polygon>
                    <polygon id="Shape" points="1152.78947 97 1151.63158 92.3684211 1147 91.9824561 1151.4386 90.6315789 1152.01754 86 1153.17544 90.6315789 1158 91.0175439 1153.36842 92.3684211"></polygon>
                    <polygon id="Shape" points="1180.78947 232 1179.63158 227.368421 1175 226.982456 1179.4386 225.631579 1180.01754 221 1181.17544 225.631579 1186 226.017544 1181.36842 227.368421"></polygon>
                    <polygon id="Shape" points="1172.78947 457 1171.63158 452.368421 1167 451.982456 1171.4386 450.631579 1172.01754 446 1173.17544 450.631579 1178 451.017544 1173.36842 452.368421"></polygon>
                    <polygon id="Shape" points="787.789474 462 786.631579 457.368421 782 456.982456 786.438596 455.631579 787.017544 451 788.175439 455.631579 793 456.017544 788.368421 457.368421"></polygon>
                    <polygon id="Shape" points="639.789474 492 638.631579 487.368421 634 486.982456 638.438596 485.631579 639.017544 481 640.175439 485.631579 645 486.017544 640.368421 487.368421"></polygon>
                    <polygon id="Shape" points="793.87931 387 792.741379 382.448276 788 381.87931 792.551724 380.741379 793.12069 376 794.258621 380.551724 799 381.12069 794.448276 382.258621"></polygon>
                    <polygon id="Shape" points="945.982456 479 944.824561 474.368421 940 473.789474 944.631579 472.631579 945.210526 468 946.368421 472.438596 951 473.017544 946.561404 474.175439"></polygon>
                    <polygon id="Shape" points="588.982456 444 587.824561 439.368421 583 438.789474 587.631579 437.631579 588.210526 433 589.368421 437.438596 594 438.017544 589.561404 439.175439"></polygon>
                    <polygon id="Shape" points="1023.98246 166 1022.82456 161.368421 1018 160.789474 1022.63158 159.631579 1023.21053 155 1024.36842 159.438596 1029 160.017544 1024.5614 161.175439"></polygon>
                    <polygon id="Shape" points="933.982456 118 932.824561 113.368421 928 112.982456 932.631579 111.631579 933.210526 107 934.368421 111.631579 939 112.017544 934.561404 113.368421"></polygon>
                    <polygon id="Shape" points="975.789474 81 974.631579 76.3684211 970 75.9824561 974.438596 74.6315789 975.017544 70 976.175439 74.6315789 981 75.0175439 976.368421 76.3684211"></polygon>
                    <polygon id="Shape" points="1126.78947 197 1125.63158 192.368421 1121 191.982456 1125.4386 190.631579 1126.01754 186 1127.17544 190.631579 1132 191.017544 1127.36842 192.368421"></polygon>
                    <polygon id="Shape" points="484.87931 261 483.741379 256.368421 479 255.789474 483.551724 254.631579 484.12069 250 485.258621 254.438596 490 255.017544 485.448276 256.175439"></polygon>
                    <polygon id="Shape" points="496.982456 182 495.824561 177.368421 491 176.789474 495.631579 175.631579 496.210526 171 497.368421 175.438596 502 176.017544 497.561404 177.175439"></polygon>
                    <polygon id="Shape" points="580.982456 124 579.824561 119.368421 575 118.789474 579.631579 117.631579 580.210526 113 581.368421 117.438596 586 118.017544 581.561404 119.175439"></polygon>
                    <polygon id="Shape" points="580.982456 268 579.824561 263.368421 575 262.789474 579.631579 261.631579 580.210526 257 581.368421 261.438596 586 262.017544 581.561404 263.175439"></polygon>
                    <polygon id="Shape" points="477.982456 107 476.824561 102.368421 472 101.789474 476.631579 100.631579 477.210526 96 478.368421 100.438596 483 101.017544 478.561404 102.175439"></polygon>
                    <polygon id="Shape" points="332.789474 37 331.631579 32.3684211 327 31.9824561 331.438596 30.6315789 332.017544 26 333.175439 30.6315789 338 31.0175439 333.368421 32.3684211"></polygon>
                    <polygon id="Shape" points="446.789474 55 445.631579 50.3684211 441 49.9824561 445.438596 48.6315789 446.017544 44 447.175439 48.6315789 452 49.0175439 447.368421 50.3684211"></polygon>
                    <polygon id="Shape" points="449.789474 221 448.631579 216.368421 444 215.982456 448.438596 214.631579 449.017544 210 450.175439 214.631579 455 215.017544 450.368421 216.368421"></polygon>
                    <polygon id="Shape" points="315.789474 390 314.631579 385.368421 310 384.982456 314.438596 383.631579 315.017544 379 316.175439 383.631579 321 384.017544 316.368421 385.368421"></polygon>
                    <polygon id="Shape" points="513.789474 410 512.631579 405.368421 508 404.982456 512.438596 403.631579 513.017544 399 514.175439 403.631579 519 404.017544 514.368421 405.368421"></polygon>
                    <polygon id="Shape" points="536.789474 328 535.631579 323.368421 531 322.982456 535.438596 321.631579 536.017544 317 537.175439 321.631579 542 322.017544 537.368421 323.368421"></polygon>
                    <polygon id="Shape" points="568.789474 59 567.631579 54.3684211 563 53.9824561 567.438596 52.6315789 568.017544 48 569.175439 52.6315789 574 53.0175439 569.368421 54.3684211"></polygon>
                    <polygon id="Shape" points="596.789474 194 595.631579 189.368421 591 188.982456 595.438596 187.631579 596.017544 183 597.175439 187.631579 602 188.017544 597.368421 189.368421"></polygon>
                    <polygon id="Shape" points="466.789474 408 465.631579 403.368421 461 402.982456 465.438596 401.631579 466.017544 397 467.175439 401.631579 472 402.017544 467.368421 403.368421"></polygon>
                    <polygon id="Shape" points="363.982456 441 362.824561 436.368421 358 435.789474 362.631579 434.631579 363.210526 430 364.368421 434.438596 369 435.017544 364.561404 436.175439"></polygon>
                    <polygon id="Shape" points="440.982456 128 439.824561 123.368421 435 122.789474 439.631579 121.631579 440.210526 117 441.368421 121.438596 446 122.017544 441.561404 123.175439"></polygon>
                    <polygon id="Shape" points="350.982456 80 349.824561 75.3684211 345 74.9824561 349.631579 73.6315789 350.210526 69 351.368421 73.6315789 356 74.0175439 351.561404 75.3684211"></polygon>
                    <polygon id="Shape" points="392.789474 43 391.631579 38.3684211 387 37.9824561 391.438596 36.6315789 392.017544 32 393.175439 36.6315789 398 37.0175439 393.368421 38.3684211"></polygon>
                    <polygon id="Shape" points="542.789474 158 541.631579 153.368421 537 152.982456 541.438596 151.631579 542.017544 147 543.175439 151.631579 548 152.017544 543.368421 153.368421"></polygon>
                    <polygon id="Shape" points="1464.87931 235 1463.74138 230.368421 1459 229.789474 1463.55172 228.631579 1464.12069 224 1465.25862 228.438596 1470 229.017544 1465.44828 230.175439"></polygon>
                    <polygon id="Shape" points="1474.98246 156 1473.82456 151.368421 1469 150.789474 1473.63158 149.631579 1474.21053 145 1475.36842 149.438596 1480 150.017544 1475.5614 151.175439"></polygon>
                    <polygon id="Shape" points="1560.98246 98 1559.82456 93.3684211 1555 92.7894737 1559.63158 91.6315789 1560.21053 87 1561.36842 91.4385965 1566 92.0175439 1561.5614 93.1754386"></polygon>
                    <polygon id="Shape" points="1560.98246 242 1559.82456 237.368421 1555 236.789474 1559.63158 235.631579 1560.21053 231 1561.36842 235.438596 1566 236.017544 1561.5614 237.175439"></polygon>
                    <polygon id="Shape" points="1457.98246 81 1456.82456 76.3684211 1452 75.7894737 1456.63158 74.6315789 1457.21053 70 1458.36842 74.4385965 1463 75.0175439 1458.5614 76.1754386"></polygon>
                    <polygon id="Shape" points="1009.98246 77 1008.63158 72.3684211 1004 71.9824561 1008.63158 70.8245614 1009.01754 66 1010.36842 70.6315789 1015 71.2105263 1010.36842 72.3684211"></polygon>
                    <polygon id="Shape" points="1311.78947 11 1310.63158 6.36842105 1306 5.98245614 1310.4386 4.63157895 1311.01754 0 1312.17544 4.63157895 1317 5.01754386 1312.36842 6.36842105"></polygon>
                    <polygon id="Shape" points="1416.78947 29 1415.63158 24.3684211 1411 23.9824561 1415.4386 22.6315789 1416.01754 18 1417.17544 22.6315789 1422 23.0175439 1417.36842 24.3684211"></polygon>
                    <polygon id="Shape" points="1429.78947 195 1428.63158 190.368421 1424 189.982456 1428.4386 188.631579 1429.01754 184 1430.17544 188.631579 1435 189.017544 1430.36842 190.368421"></polygon>
                    <polygon id="Shape" points="1295.78947 364 1294.63158 359.368421 1290 358.982456 1294.4386 357.631579 1295.01754 353 1296.17544 357.631579 1301 358.017544 1296.36842 359.368421"></polygon>
                    <polygon id="Shape" points="1077.78947 378 1076.63158 373.368421 1072 372.982456 1076.4386 371.631579 1077.01754 367 1078.17544 371.631579 1083 372.017544 1078.36842 373.368421"></polygon>
                    <polygon id="Shape" points="1083.78947 230 1082.63158 225.368421 1078 224.982456 1082.4386 223.631579 1083.01754 219 1084.17544 223.631579 1089 224.017544 1084.36842 225.368421"></polygon>
                    <polygon id="Shape" points="1065.78947 188 1064.63158 183.368421 1060 182.982456 1064.4386 181.631579 1065.01754 177 1066.17544 181.631579 1071 182.017544 1066.36842 183.368421"></polygon>
                    <polygon id="Shape" points="1014.78947 292 1013.63158 287.368421 1009 286.982456 1013.4386 285.631579 1014.01754 281 1015.17544 285.631579 1020 286.017544 1015.36842 287.368421"></polygon>
                    <polygon id="Shape" points="1491.78947 385 1490.63158 380.368421 1486 379.982456 1490.4386 378.631579 1491.01754 374 1492.17544 378.631579 1497 379.017544 1492.36842 380.368421"></polygon>
                    <polygon id="Shape" points="1515.78947 302 1514.63158 297.368421 1510 296.982456 1514.4386 295.631579 1515.01754 291 1516.17544 295.631579 1521 296.017544 1516.36842 297.368421"></polygon>
                    <polygon id="Shape" points="1083.78947 74 1082.63158 69.3684211 1078 68.9824561 1082.4386 67.6315789 1083.01754 63 1084.17544 67.6315789 1089 68.0175439 1084.36842 69.3684211"></polygon>
                    <polygon id="Shape" points="1004.78947 216 1003.63158 211.368421 999 210.982456 1003.4386 209.631579 1004.01754 205 1005.17544 209.631579 1010 210.017544 1005.36842 211.368421"></polygon>
                    <polygon id="Shape" points="1022.78947 15 1021.63158 10.3684211 1017 9.98245614 1021.4386 8.63157895 1022.01754 4 1023.17544 8.63157895 1028 9.01754386 1023.36842 10.3684211"></polygon>
                    <polygon id="Shape" points="1150.78947 21 1149.63158 16.3684211 1145 15.9824561 1149.4386 14.6315789 1150.01754 10 1151.17544 14.6315789 1156 15.0175439 1151.36842 16.3684211"></polygon>
                    <polygon id="Shape" points="1548.78947 33 1547.63158 28.3684211 1543 27.9824561 1547.4386 26.6315789 1548.01754 22 1549.17544 26.6315789 1554 27.0175439 1549.36842 28.3684211"></polygon>
                    <polygon id="Shape" points="1576.78947 168 1575.63158 163.368421 1571 162.982456 1575.4386 161.631579 1576.01754 157 1577.17544 161.631579 1582 162.017544 1577.36842 163.368421"></polygon>
                    <polygon id="Shape" points="1569.78947 393 1568.63158 388.368421 1564 387.982456 1568.4386 386.631579 1569.01754 382 1570.17544 386.631579 1575 387.017544 1570.36842 388.368421"></polygon>
                    <polygon id="Shape" points="1183.78947 398 1182.63158 393.368421 1178 392.982456 1182.4386 391.631579 1183.01754 387 1184.17544 391.631579 1189 392.017544 1184.36842 393.368421"></polygon>
                    <polygon id="Shape" points="1035.78947 428 1034.63158 423.368421 1030 422.982456 1034.4386 421.631579 1035.01754 417 1036.17544 421.631579 1041 422.017544 1036.36842 423.368421"></polygon>
                    <polygon id="Shape" points="1202.87931 353 1201.74138 348.448276 1197 347.87931 1201.55172 346.741379 1202.12069 342 1203.25862 346.551724 1208 347.12069 1203.44828 348.258621"></polygon>
                    <polygon id="Shape" points="1341.98246 415 1340.82456 410.368421 1336 409.789474 1340.63158 408.631579 1341.21053 404 1342.36842 408.438596 1347 409.017544 1342.5614 410.175439"></polygon>
                    <polygon id="Shape" points="985.982456 380 984.824561 375.368421 980 374.789474 984.631579 373.631579 985.210526 369 986.368421 373.438596 991 374.017544 986.561404 375.175439"></polygon>
                    <polygon id="Shape" points="1419.98246 102 1418.82456 97.3684211 1414 96.7894737 1418.63158 95.6315789 1419.21053 91 1420.36842 95.4385965 1425 96.0175439 1420.5614 97.1754386"></polygon>
                    <polygon id="Shape" points="1330.98246 54 1329.82456 49.3684211 1325 48.9824561 1329.63158 47.6315789 1330.21053 43 1331.36842 47.6315789 1336 48.0175439 1331.5614 49.3684211"></polygon>
                    <polygon id="Shape" points="1371.78947 17 1370.63158 12.3684211 1366 11.9824561 1370.4386 10.6315789 1371.01754 6 1372.17544 10.6315789 1377 11.0175439 1372.36842 12.3684211"></polygon>
                    <polygon id="Shape" points="1522.78947 133 1521.63158 128.368421 1517 127.982456 1521.4386 126.631579 1522.01754 122 1523.17544 126.631579 1528 127.017544 1523.36842 128.368421"></polygon>
                    <polygon id="Shape" points="1303.98246 206 1302.63158 201.368421 1298 200.982456 1302.63158 199.824561 1303.01754 195 1304.36842 199.631579 1309 200.210526 1304.36842 201.368421"></polygon>
                    <polygon id="Shape" points="1604.78947 140 1603.63158 135.368421 1599 134.982456 1603.4386 133.631579 1604.01754 129 1605.17544 133.631579 1610 134.017544 1605.36842 135.368421"></polygon>
                    <polygon id="Shape" points="1588.78947 493 1587.63158 488.368421 1583 487.982456 1587.4386 486.631579 1588.01754 482 1589.17544 486.631579 1594 487.017544 1589.36842 488.368421"></polygon>
                    <polygon id="Shape" points="1409.78947 495 1408.63158 490.368421 1404 489.982456 1408.4386 488.631579 1409.01754 484 1410.17544 488.631579 1415 489.017544 1410.36842 490.368421"></polygon>
                    <polygon id="Shape" points="1387.78947 430 1386.63158 425.368421 1382 424.982456 1386.4386 423.631579 1387.01754 419 1388.17544 423.631579 1393 424.017544 1388.36842 425.368421"></polygon>
                    <polygon id="Shape" points="1360.78947 317 1359.63158 312.368421 1355 311.982456 1359.4386 310.631579 1360.01754 306 1361.17544 310.631579 1366 311.017544 1361.36842 312.368421"></polygon>
                    <polygon id="Shape" points="1308.78947 422 1307.63158 417.368421 1303 416.982456 1307.4386 415.631579 1308.01754 411 1309.17544 415.631579 1314 416.017544 1309.36842 417.368421"></polygon>
                    <polygon id="Shape" points="1377.78947 203 1376.63158 198.368421 1372 197.982456 1376.4386 196.631579 1377.01754 192 1378.17544 196.631579 1383 197.017544 1378.36842 198.368421"></polygon>
                    <polygon id="Shape" points="1292.78947 317 1291.63158 312.368421 1287 311.982456 1291.4386 310.631579 1292.01754 306 1293.17544 310.631579 1298 311.017544 1293.36842 312.368421"></polygon>
                    <polygon id="Shape" points="1315.78947 144 1314.63158 139.368421 1310 138.982456 1314.4386 137.631579 1315.01754 133 1316.17544 137.631579 1321 138.017544 1316.36842 139.368421"></polygon>
                    <polygon id="Shape" points="1445.78947 150 1444.63158 145.368421 1440 144.982456 1444.4386 143.631579 1445.01754 139 1446.17544 143.631579 1451 144.017544 1446.36842 145.368421"></polygon>
                    <polygon id="Shape" points="1477.78947 527 1476.63158 522.368421 1472 521.982456 1476.4386 520.631579 1477.01754 516 1478.17544 520.631579 1483 521.017544 1478.36842 522.368421"></polygon>
                    <polygon id="Shape" points="1329.78947 558 1328.63158 553.368421 1324 552.982456 1328.4386 551.631579 1329.01754 547 1330.17544 551.631579 1335 552.017544 1330.36842 553.368421"></polygon>
                    <polygon id="Shape" points="1496.87931 482 1495.74138 477.448276 1491 476.87931 1495.55172 475.741379 1496.12069 471 1497.25862 475.551724 1502 476.12069 1497.44828 477.258621"></polygon>
                    <polygon id="Shape" points="1635.98246 544 1634.82456 539.368421 1630 538.789474 1634.63158 537.631579 1635.21053 533 1636.36842 537.438596 1641 538.017544 1636.5614 539.175439"></polygon>
                    <polygon id="Shape" points="1279.98246 509 1278.82456 504.368421 1274 503.789474 1278.63158 502.631579 1279.21053 498 1280.36842 502.438596 1285 503.017544 1280.5614 504.175439"></polygon>
                    <polygon id="Shape" points="1624.98246 183 1623.82456 178.368421 1619 177.982456 1623.63158 176.631579 1624.21053 172 1625.36842 176.631579 1630 177.017544 1625.5614 178.368421"></polygon>
                    <polygon id="Shape" points="1665.78947 146 1664.63158 141.368421 1660 140.982456 1664.4386 139.631579 1665.01754 135 1666.17544 139.631579 1671 140.017544 1666.36842 141.368421"></polygon>
                    <polygon id="Shape" points="850.87931 245 849.741379 240.368421 845 239.789474 849.551724 238.631579 850.12069 234 851.258621 238.438596 856 239.017544 851.448276 240.175439"></polygon>
                    <polygon id="Shape" points="861.982456 165 860.824561 160.368421 856 159.789474 860.631579 158.631579 861.210526 154 862.368421 158.438596 867 159.017544 862.561404 160.175439"></polygon>
                    <polygon id="Shape" points="716.982456 215 715.824561 210.368421 711 209.789474 715.631579 208.631579 716.210526 204 717.368421 208.438596 722 209.017544 717.561404 210.175439"></polygon>
                    <polygon id="Shape" points="945.982456 251 944.824561 246.368421 940 245.789474 944.631579 244.631579 945.210526 240 946.368421 244.438596 951 245.017544 946.561404 246.175439"></polygon>
                    <polygon id="Shape" points="842.982456 90 841.824561 85.3684211 837 84.7894737 841.631579 83.6315789 842.210526 79 843.368421 83.4385965 848 84.0175439 843.561404 85.1754386"></polygon>
                    <polygon id="Shape" points="395.982456 86 394.631579 81.3684211 390 80.9824561 394.631579 79.8245614 395.017544 75 396.368421 79.6315789 401 80.2105263 396.368421 81.3684211"></polygon>
                    <polygon id="Shape" points="696.789474 20 695.631579 15.3684211 691 14.9824561 695.438596 13.6315789 696.017544 9 697.175439 13.6315789 702 14.0175439 697.368421 15.3684211"></polygon>
                    <polygon id="Shape" points="811.789474 39 810.631579 34.3684211 806 33.9824561 810.438596 32.6315789 811.017544 28 812.175439 32.6315789 817 33.0175439 812.368421 34.3684211"></polygon>
                    <polygon id="Shape" points="814.789474 204 813.631579 199.368421 809 198.982456 813.438596 197.631579 814.017544 193 815.175439 197.631579 820 198.017544 815.368421 199.368421"></polygon>
                    <polygon id="Shape" points="680.789474 372 679.631579 367.368421 675 366.982456 679.438596 365.631579 680.017544 361 681.175439 365.631579 686 366.017544 681.368421 367.368421"></polygon>
                    <polygon id="Shape" points="502.789474 375 501.631579 370.368421 497 369.982456 501.438596 368.631579 502.017544 364 503.175439 368.631579 508 369.017544 503.368421 370.368421"></polygon>
                    <polygon id="Shape" points="480.789474 310 479.631579 305.368421 475 304.982456 479.438596 303.631579 480.017544 299 481.175439 303.631579 486 304.017544 481.368421 305.368421"></polygon>
                    <polygon id="Shape" points="451.789474 198 450.631579 193.368421 446 192.982456 450.438596 191.631579 451.017544 187 452.175439 191.631579 457 192.017544 452.368421 193.368421"></polygon>
                    <polygon id="Shape" points="400.789474 302 399.631579 297.368421 395 296.982456 399.438596 295.631579 400.017544 291 401.175439 295.631579 406 296.017544 401.368421 297.368421"></polygon>
                    <polygon id="Shape" points="878.789474 394 877.631579 389.368421 873 388.982456 877.438596 387.631579 878.017544 383 879.175439 387.631579 884 388.017544 879.368421 389.368421"></polygon>
                    <polygon id="Shape" points="754.789474 329 753.631579 324.368421 749 323.982456 753.438596 322.631579 754.017544 318 755.175439 322.631579 760 323.017544 755.368421 324.368421"></polygon>
                    <polygon id="Shape" points="468.789474 82 467.631579 77.3684211 463 76.9824561 467.438596 75.6315789 468.017544 71 469.175439 75.6315789 474 76.0175439 469.368421 77.3684211"></polygon>
                    <polygon id="Shape" points="384.789474 197 383.631579 192.368421 379 191.982456 383.438596 190.631579 384.017544 186 385.175439 190.631579 390 191.017544 385.368421 192.368421"></polygon>
                    <polygon id="Shape" points="407.789474 23 406.631579 18.3684211 402 17.9824561 406.438596 16.6315789 407.017544 12 408.175439 16.6315789 413 17.0175439 408.368421 18.3684211"></polygon>
                    <polygon id="Shape" points="536.789474 29 535.631579 24.3684211 531 23.9824561 535.438596 22.6315789 536.017544 18 537.175439 22.6315789 542 23.0175439 537.368421 24.3684211"></polygon>
                    <polygon id="Shape" points="933.789474 43 932.631579 38.3684211 928 37.9824561 932.438596 36.6315789 933.017544 32 934.175439 36.6315789 939 37.0175439 934.368421 38.3684211"></polygon>
                    <polygon id="Shape" points="961.789474 178 960.631579 173.368421 956 172.982456 960.438596 171.631579 961.017544 167 962.175439 171.631579 967 172.017544 962.368421 173.368421"></polygon>
                    <polygon id="Shape" points="878.789474 477 877.631579 472.368421 873 471.982456 877.438596 470.631579 878.017544 466 879.175439 470.631579 884 471.017544 879.368421 472.368421"></polygon>
                    <polygon id="Shape" points="568.789474 407 567.631579 402.368421 563 401.982456 567.438596 400.631579 568.017544 396 569.175439 400.631579 574 401.017544 569.368421 402.368421"></polygon>
                    <polygon id="Shape" points="421.789474 437 420.631579 432.368421 416 431.982456 420.438596 430.631579 421.017544 426 422.175439 430.631579 427 431.017544 422.368421 432.368421"></polygon>
                    <polygon id="Shape" points="370.982456 388 369.824561 383.368421 365 382.789474 369.631579 381.631579 370.210526 377 371.368421 381.438596 376 382.017544 371.561404 383.175439"></polygon>
                    <polygon id="Shape" points="805.982456 111 804.824561 106.368421 800 105.789474 804.631579 104.631579 805.210526 100 806.368421 104.438596 811 105.017544 806.561404 106.175439"></polygon>
                    <polygon id="Shape" points="716.982456 64 715.824561 59.3684211 711 58.9824561 715.631579 57.6315789 716.210526 53 717.368421 57.6315789 722 58.0175439 717.561404 59.3684211"></polygon>
                    <polygon id="Shape" points="757.789474 26 756.631579 21.3684211 752 20.9824561 756.438596 19.6315789 757.017544 15 758.175439 19.6315789 763 20.0175439 758.368421 21.3684211"></polygon>
                    <polygon id="Shape" points="907.789474 143 906.631579 138.368421 902 137.982456 906.438596 136.631579 907.017544 132 908.175439 136.631579 913 137.017544 908.368421 138.368421"></polygon>
                </g>
                <g id="Stars-Copy-2" transform="translate(0.000000, 460.000000)" fill="#2C4B7A">
                    <polygon id="Shape" points="954.87931 339 953.741379 334.368421 949 333.789474 953.551724 332.631579 954.12069 328 955.258621 332.438596 960 333.017544 955.448276 334.175439"></polygon>
                    <polygon id="Shape" points="1247.98246 261 1246.82456 256.368421 1242 255.789474 1246.63158 254.631579 1247.21053 250 1248.36842 254.438596 1253 255.017544 1248.5614 256.175439"></polygon>
                    <polygon id="Shape" points="1164.98246 162 1163.82456 157.368421 1159 156.789474 1163.63158 155.631579 1164.21053 151 1165.36842 155.438596 1170 156.017544 1165.5614 157.175439"></polygon>
                    <polygon id="Shape" points="1164.98246 306 1163.82456 301.368421 1159 300.789474 1163.63158 299.631579 1164.21053 295 1165.36842 299.438596 1170 300.017544 1165.5614 301.175439"></polygon>
                    <polygon id="Shape" points="1061.98246 144 1060.82456 139.368421 1056 138.789474 1060.63158 137.631579 1061.21053 133 1062.36842 137.438596 1067 138.017544 1062.5614 139.175439"></polygon>
                    <polygon id="Shape" points="614.982456 140 613.631579 135.368421 609 134.982456 613.631579 133.824561 614.017544 129 615.368421 133.631579 620 134.210526 615.368421 135.368421"></polygon>
                    <polygon id="Shape" points="915.789474 75 914.631579 70.3684211 910 69.9824561 914.438596 68.6315789 915.017544 64 916.175439 68.6315789 921 69.0175439 916.368421 70.3684211"></polygon>
                    <polygon id="Shape" points="1030.78947 93 1029.63158 88.3684211 1025 87.9824561 1029.4386 86.6315789 1030.01754 82 1031.17544 86.6315789 1036 87.0175439 1031.36842 88.3684211"></polygon>
                    <polygon id="Shape" points="1032.78947 258 1031.63158 253.368421 1027 252.982456 1031.4386 251.631579 1032.01754 247 1033.17544 251.631579 1038 252.017544 1033.36842 253.368421"></polygon>
                    <polygon id="Shape" points="898.789474 428 897.631579 423.368421 893 422.982456 897.438596 421.631579 898.017544 417 899.175439 421.631579 904 422.017544 899.368421 423.368421"></polygon>
                    <polygon id="Shape" points="719.789474 430 718.631579 425.368421 714 424.982456 718.438596 423.631579 719.017544 419 720.175439 423.631579 725 424.017544 720.368421 425.368421"></polygon>
                    <polygon id="Shape" points="669.789474 252 668.631579 247.368421 664 246.982456 668.438596 245.631579 669.017544 241 670.175439 245.631579 675 246.017544 670.368421 247.368421"></polygon>
                    <polygon id="Shape" points="805.789474 263 804.631579 258.368421 800 257.982456 804.438596 256.631579 805.017544 252 806.175439 256.631579 811 257.017544 806.368421 258.368421"></polygon>
                    <polygon id="Shape" points="1095.78947 449 1094.63158 444.368421 1090 443.982456 1094.4386 442.631579 1095.01754 438 1096.17544 442.631579 1101 443.017544 1096.36842 444.368421"></polygon>
                    <polygon id="Shape" points="1145.78947 397 1144.63158 392.368421 1140 391.982456 1144.4386 390.631579 1145.01754 386 1146.17544 390.631579 1151 391.017544 1146.36842 392.368421"></polygon>
                    <polygon id="Shape" points="686.789474 136 685.631579 131.368421 681 130.982456 685.438596 129.631579 686.017544 125 687.175439 129.631579 692 130.017544 687.368421 131.368421"></polygon>
                    <polygon id="Shape" points="601.789474 251 600.631579 246.368421 596 245.982456 600.438596 244.631579 601.017544 240 602.175439 244.631579 607 245.017544 602.368421 246.368421"></polygon>
                    <polygon id="Shape" points="626.789474 79 625.631579 74.3684211 621 73.9824561 625.438596 72.6315789 626.017544 68 627.175439 72.6315789 632 73.0175439 627.368421 74.3684211"></polygon>
                    <polygon id="Shape" points="754.789474 85 753.631579 80.3684211 749 79.9824561 753.438596 78.6315789 754.017544 74 755.175439 78.6315789 760 79.0175439 755.368421 80.3684211"></polygon>
                    <polygon id="Shape" points="1152.78947 97 1151.63158 92.3684211 1147 91.9824561 1151.4386 90.6315789 1152.01754 86 1153.17544 90.6315789 1158 91.0175439 1153.36842 92.3684211"></polygon>
                    <polygon id="Shape" points="1180.78947 232 1179.63158 227.368421 1175 226.982456 1179.4386 225.631579 1180.01754 221 1181.17544 225.631579 1186 226.017544 1181.36842 227.368421"></polygon>
                    <polygon id="Shape" points="1172.78947 457 1171.63158 452.368421 1167 451.982456 1171.4386 450.631579 1172.01754 446 1173.17544 450.631579 1178 451.017544 1173.36842 452.368421"></polygon>
                    <polygon id="Shape" points="787.789474 462 786.631579 457.368421 782 456.982456 786.438596 455.631579 787.017544 451 788.175439 455.631579 793 456.017544 788.368421 457.368421"></polygon>
                    <polygon id="Shape" points="639.789474 492 638.631579 487.368421 634 486.982456 638.438596 485.631579 639.017544 481 640.175439 485.631579 645 486.017544 640.368421 487.368421"></polygon>
                    <polygon id="Shape" points="793.87931 387 792.741379 382.448276 788 381.87931 792.551724 380.741379 793.12069 376 794.258621 380.551724 799 381.12069 794.448276 382.258621"></polygon>
                    <polygon id="Shape" points="945.982456 479 944.824561 474.368421 940 473.789474 944.631579 472.631579 945.210526 468 946.368421 472.438596 951 473.017544 946.561404 474.175439"></polygon>
                    <polygon id="Shape" points="588.982456 444 587.824561 439.368421 583 438.789474 587.631579 437.631579 588.210526 433 589.368421 437.438596 594 438.017544 589.561404 439.175439"></polygon>
                    <polygon id="Shape" points="1023.98246 166 1022.82456 161.368421 1018 160.789474 1022.63158 159.631579 1023.21053 155 1024.36842 159.438596 1029 160.017544 1024.5614 161.175439"></polygon>
                    <polygon id="Shape" points="933.982456 118 932.824561 113.368421 928 112.982456 932.631579 111.631579 933.210526 107 934.368421 111.631579 939 112.017544 934.561404 113.368421"></polygon>
                    <polygon id="Shape" points="975.789474 81 974.631579 76.3684211 970 75.9824561 974.438596 74.6315789 975.017544 70 976.175439 74.6315789 981 75.0175439 976.368421 76.3684211"></polygon>
                    <polygon id="Shape" points="1126.78947 197 1125.63158 192.368421 1121 191.982456 1125.4386 190.631579 1126.01754 186 1127.17544 190.631579 1132 191.017544 1127.36842 192.368421"></polygon>
                    <polygon id="Shape" points="484.87931 261 483.741379 256.368421 479 255.789474 483.551724 254.631579 484.12069 250 485.258621 254.438596 490 255.017544 485.448276 256.175439"></polygon>
                    <polygon id="Shape" points="496.982456 182 495.824561 177.368421 491 176.789474 495.631579 175.631579 496.210526 171 497.368421 175.438596 502 176.017544 497.561404 177.175439"></polygon>
                    <polygon id="Shape" points="580.982456 124 579.824561 119.368421 575 118.789474 579.631579 117.631579 580.210526 113 581.368421 117.438596 586 118.017544 581.561404 119.175439"></polygon>
                    <polygon id="Shape" points="580.982456 268 579.824561 263.368421 575 262.789474 579.631579 261.631579 580.210526 257 581.368421 261.438596 586 262.017544 581.561404 263.175439"></polygon>
                    <polygon id="Shape" points="477.982456 107 476.824561 102.368421 472 101.789474 476.631579 100.631579 477.210526 96 478.368421 100.438596 483 101.017544 478.561404 102.175439"></polygon>
                    <polygon id="Shape" points="332.789474 37 331.631579 32.3684211 327 31.9824561 331.438596 30.6315789 332.017544 26 333.175439 30.6315789 338 31.0175439 333.368421 32.3684211"></polygon>
                    <polygon id="Shape" points="446.789474 55 445.631579 50.3684211 441 49.9824561 445.438596 48.6315789 446.017544 44 447.175439 48.6315789 452 49.0175439 447.368421 50.3684211"></polygon>
                    <polygon id="Shape" points="449.789474 221 448.631579 216.368421 444 215.982456 448.438596 214.631579 449.017544 210 450.175439 214.631579 455 215.017544 450.368421 216.368421"></polygon>
                    <polygon id="Shape" points="315.789474 390 314.631579 385.368421 310 384.982456 314.438596 383.631579 315.017544 379 316.175439 383.631579 321 384.017544 316.368421 385.368421"></polygon>
                    <polygon id="Shape" points="513.789474 410 512.631579 405.368421 508 404.982456 512.438596 403.631579 513.017544 399 514.175439 403.631579 519 404.017544 514.368421 405.368421"></polygon>
                    <polygon id="Shape" points="536.789474 328 535.631579 323.368421 531 322.982456 535.438596 321.631579 536.017544 317 537.175439 321.631579 542 322.017544 537.368421 323.368421"></polygon>
                    <polygon id="Shape" points="568.789474 59 567.631579 54.3684211 563 53.9824561 567.438596 52.6315789 568.017544 48 569.175439 52.6315789 574 53.0175439 569.368421 54.3684211"></polygon>
                    <polygon id="Shape" points="596.789474 194 595.631579 189.368421 591 188.982456 595.438596 187.631579 596.017544 183 597.175439 187.631579 602 188.017544 597.368421 189.368421"></polygon>
                    <polygon id="Shape" points="466.789474 408 465.631579 403.368421 461 402.982456 465.438596 401.631579 466.017544 397 467.175439 401.631579 472 402.017544 467.368421 403.368421"></polygon>
                    <polygon id="Shape" points="363.982456 441 362.824561 436.368421 358 435.789474 362.631579 434.631579 363.210526 430 364.368421 434.438596 369 435.017544 364.561404 436.175439"></polygon>
                    <polygon id="Shape" points="440.982456 128 439.824561 123.368421 435 122.789474 439.631579 121.631579 440.210526 117 441.368421 121.438596 446 122.017544 441.561404 123.175439"></polygon>
                    <polygon id="Shape" points="350.982456 80 349.824561 75.3684211 345 74.9824561 349.631579 73.6315789 350.210526 69 351.368421 73.6315789 356 74.0175439 351.561404 75.3684211"></polygon>
                    <polygon id="Shape" points="392.789474 43 391.631579 38.3684211 387 37.9824561 391.438596 36.6315789 392.017544 32 393.175439 36.6315789 398 37.0175439 393.368421 38.3684211"></polygon>
                    <polygon id="Shape" points="542.789474 158 541.631579 153.368421 537 152.982456 541.438596 151.631579 542.017544 147 543.175439 151.631579 548 152.017544 543.368421 153.368421"></polygon>
                    <polygon id="Shape" points="1464.87931 235 1463.74138 230.368421 1459 229.789474 1463.55172 228.631579 1464.12069 224 1465.25862 228.438596 1470 229.017544 1465.44828 230.175439"></polygon>
                    <polygon id="Shape" points="1474.98246 156 1473.82456 151.368421 1469 150.789474 1473.63158 149.631579 1474.21053 145 1475.36842 149.438596 1480 150.017544 1475.5614 151.175439"></polygon>
                    <polygon id="Shape" points="1560.98246 98 1559.82456 93.3684211 1555 92.7894737 1559.63158 91.6315789 1560.21053 87 1561.36842 91.4385965 1566 92.0175439 1561.5614 93.1754386"></polygon>
                    <polygon id="Shape" points="1560.98246 242 1559.82456 237.368421 1555 236.789474 1559.63158 235.631579 1560.21053 231 1561.36842 235.438596 1566 236.017544 1561.5614 237.175439"></polygon>
                    <polygon id="Shape" points="1457.98246 81 1456.82456 76.3684211 1452 75.7894737 1456.63158 74.6315789 1457.21053 70 1458.36842 74.4385965 1463 75.0175439 1458.5614 76.1754386"></polygon>
                    <polygon id="Shape" points="1009.98246 77 1008.63158 72.3684211 1004 71.9824561 1008.63158 70.8245614 1009.01754 66 1010.36842 70.6315789 1015 71.2105263 1010.36842 72.3684211"></polygon>
                    <polygon id="Shape" points="1311.78947 11 1310.63158 6.36842105 1306 5.98245614 1310.4386 4.63157895 1311.01754 0 1312.17544 4.63157895 1317 5.01754386 1312.36842 6.36842105"></polygon>
                    <polygon id="Shape" points="1416.78947 29 1415.63158 24.3684211 1411 23.9824561 1415.4386 22.6315789 1416.01754 18 1417.17544 22.6315789 1422 23.0175439 1417.36842 24.3684211"></polygon>
                    <polygon id="Shape" points="1429.78947 195 1428.63158 190.368421 1424 189.982456 1428.4386 188.631579 1429.01754 184 1430.17544 188.631579 1435 189.017544 1430.36842 190.368421"></polygon>
                    <polygon id="Shape" points="1295.78947 364 1294.63158 359.368421 1290 358.982456 1294.4386 357.631579 1295.01754 353 1296.17544 357.631579 1301 358.017544 1296.36842 359.368421"></polygon>
                    <polygon id="Shape" points="1077.78947 378 1076.63158 373.368421 1072 372.982456 1076.4386 371.631579 1077.01754 367 1078.17544 371.631579 1083 372.017544 1078.36842 373.368421"></polygon>
                    <polygon id="Shape" points="1083.78947 230 1082.63158 225.368421 1078 224.982456 1082.4386 223.631579 1083.01754 219 1084.17544 223.631579 1089 224.017544 1084.36842 225.368421"></polygon>
                    <polygon id="Shape" points="1065.78947 188 1064.63158 183.368421 1060 182.982456 1064.4386 181.631579 1065.01754 177 1066.17544 181.631579 1071 182.017544 1066.36842 183.368421"></polygon>
                    <polygon id="Shape" points="1014.78947 292 1013.63158 287.368421 1009 286.982456 1013.4386 285.631579 1014.01754 281 1015.17544 285.631579 1020 286.017544 1015.36842 287.368421"></polygon>
                    <polygon id="Shape" points="1491.78947 385 1490.63158 380.368421 1486 379.982456 1490.4386 378.631579 1491.01754 374 1492.17544 378.631579 1497 379.017544 1492.36842 380.368421"></polygon>
                    <polygon id="Shape" points="1515.78947 302 1514.63158 297.368421 1510 296.982456 1514.4386 295.631579 1515.01754 291 1516.17544 295.631579 1521 296.017544 1516.36842 297.368421"></polygon>
                    <polygon id="Shape" points="1083.78947 74 1082.63158 69.3684211 1078 68.9824561 1082.4386 67.6315789 1083.01754 63 1084.17544 67.6315789 1089 68.0175439 1084.36842 69.3684211"></polygon>
                    <polygon id="Shape" points="1004.78947 216 1003.63158 211.368421 999 210.982456 1003.4386 209.631579 1004.01754 205 1005.17544 209.631579 1010 210.017544 1005.36842 211.368421"></polygon>
                    <polygon id="Shape" points="1022.78947 15 1021.63158 10.3684211 1017 9.98245614 1021.4386 8.63157895 1022.01754 4 1023.17544 8.63157895 1028 9.01754386 1023.36842 10.3684211"></polygon>
                    <polygon id="Shape" points="1150.78947 21 1149.63158 16.3684211 1145 15.9824561 1149.4386 14.6315789 1150.01754 10 1151.17544 14.6315789 1156 15.0175439 1151.36842 16.3684211"></polygon>
                    <polygon id="Shape" points="1548.78947 33 1547.63158 28.3684211 1543 27.9824561 1547.4386 26.6315789 1548.01754 22 1549.17544 26.6315789 1554 27.0175439 1549.36842 28.3684211"></polygon>
                    <polygon id="Shape" points="1576.78947 168 1575.63158 163.368421 1571 162.982456 1575.4386 161.631579 1576.01754 157 1577.17544 161.631579 1582 162.017544 1577.36842 163.368421"></polygon>
                    <polygon id="Shape" points="1569.78947 393 1568.63158 388.368421 1564 387.982456 1568.4386 386.631579 1569.01754 382 1570.17544 386.631579 1575 387.017544 1570.36842 388.368421"></polygon>
                    <polygon id="Shape" points="1183.78947 398 1182.63158 393.368421 1178 392.982456 1182.4386 391.631579 1183.01754 387 1184.17544 391.631579 1189 392.017544 1184.36842 393.368421"></polygon>
                    <polygon id="Shape" points="1035.78947 428 1034.63158 423.368421 1030 422.982456 1034.4386 421.631579 1035.01754 417 1036.17544 421.631579 1041 422.017544 1036.36842 423.368421"></polygon>
                    <polygon id="Shape" points="1202.87931 353 1201.74138 348.448276 1197 347.87931 1201.55172 346.741379 1202.12069 342 1203.25862 346.551724 1208 347.12069 1203.44828 348.258621"></polygon>
                    <polygon id="Shape" points="1341.98246 415 1340.82456 410.368421 1336 409.789474 1340.63158 408.631579 1341.21053 404 1342.36842 408.438596 1347 409.017544 1342.5614 410.175439"></polygon>
                    <polygon id="Shape" points="985.982456 380 984.824561 375.368421 980 374.789474 984.631579 373.631579 985.210526 369 986.368421 373.438596 991 374.017544 986.561404 375.175439"></polygon>
                    <polygon id="Shape" points="1419.98246 102 1418.82456 97.3684211 1414 96.7894737 1418.63158 95.6315789 1419.21053 91 1420.36842 95.4385965 1425 96.0175439 1420.5614 97.1754386"></polygon>
                    <polygon id="Shape" points="1330.98246 54 1329.82456 49.3684211 1325 48.9824561 1329.63158 47.6315789 1330.21053 43 1331.36842 47.6315789 1336 48.0175439 1331.5614 49.3684211"></polygon>
                    <polygon id="Shape" points="1371.78947 17 1370.63158 12.3684211 1366 11.9824561 1370.4386 10.6315789 1371.01754 6 1372.17544 10.6315789 1377 11.0175439 1372.36842 12.3684211"></polygon>
                    <polygon id="Shape" points="1522.78947 133 1521.63158 128.368421 1517 127.982456 1521.4386 126.631579 1522.01754 122 1523.17544 126.631579 1528 127.017544 1523.36842 128.368421"></polygon>
                    <polygon id="Shape" points="1303.98246 206 1302.63158 201.368421 1298 200.982456 1302.63158 199.824561 1303.01754 195 1304.36842 199.631579 1309 200.210526 1304.36842 201.368421"></polygon>
                    <polygon id="Shape" points="1604.78947 140 1603.63158 135.368421 1599 134.982456 1603.4386 133.631579 1604.01754 129 1605.17544 133.631579 1610 134.017544 1605.36842 135.368421"></polygon>
                    <polygon id="Shape" points="1588.78947 493 1587.63158 488.368421 1583 487.982456 1587.4386 486.631579 1588.01754 482 1589.17544 486.631579 1594 487.017544 1589.36842 488.368421"></polygon>
                    <polygon id="Shape" points="1409.78947 495 1408.63158 490.368421 1404 489.982456 1408.4386 488.631579 1409.01754 484 1410.17544 488.631579 1415 489.017544 1410.36842 490.368421"></polygon>
                    <polygon id="Shape" points="1387.78947 430 1386.63158 425.368421 1382 424.982456 1386.4386 423.631579 1387.01754 419 1388.17544 423.631579 1393 424.017544 1388.36842 425.368421"></polygon>
                    <polygon id="Shape" points="1360.78947 317 1359.63158 312.368421 1355 311.982456 1359.4386 310.631579 1360.01754 306 1361.17544 310.631579 1366 311.017544 1361.36842 312.368421"></polygon>
                    <polygon id="Shape" points="1308.78947 422 1307.63158 417.368421 1303 416.982456 1307.4386 415.631579 1308.01754 411 1309.17544 415.631579 1314 416.017544 1309.36842 417.368421"></polygon>
                    <polygon id="Shape" points="1377.78947 203 1376.63158 198.368421 1372 197.982456 1376.4386 196.631579 1377.01754 192 1378.17544 196.631579 1383 197.017544 1378.36842 198.368421"></polygon>
                    <polygon id="Shape" points="1292.78947 317 1291.63158 312.368421 1287 311.982456 1291.4386 310.631579 1292.01754 306 1293.17544 310.631579 1298 311.017544 1293.36842 312.368421"></polygon>
                    <polygon id="Shape" points="1315.78947 144 1314.63158 139.368421 1310 138.982456 1314.4386 137.631579 1315.01754 133 1316.17544 137.631579 1321 138.017544 1316.36842 139.368421"></polygon>
                    <polygon id="Shape" points="1445.78947 150 1444.63158 145.368421 1440 144.982456 1444.4386 143.631579 1445.01754 139 1446.17544 143.631579 1451 144.017544 1446.36842 145.368421"></polygon>
                    <polygon id="Shape" points="1477.78947 527 1476.63158 522.368421 1472 521.982456 1476.4386 520.631579 1477.01754 516 1478.17544 520.631579 1483 521.017544 1478.36842 522.368421"></polygon>
                    <polygon id="Shape" points="1329.78947 558 1328.63158 553.368421 1324 552.982456 1328.4386 551.631579 1329.01754 547 1330.17544 551.631579 1335 552.017544 1330.36842 553.368421"></polygon>
                    <polygon id="Shape" points="1496.87931 482 1495.74138 477.448276 1491 476.87931 1495.55172 475.741379 1496.12069 471 1497.25862 475.551724 1502 476.12069 1497.44828 477.258621"></polygon>
                    <polygon id="Shape" points="1635.98246 544 1634.82456 539.368421 1630 538.789474 1634.63158 537.631579 1635.21053 533 1636.36842 537.438596 1641 538.017544 1636.5614 539.175439"></polygon>
                    <polygon id="Shape" points="1279.98246 509 1278.82456 504.368421 1274 503.789474 1278.63158 502.631579 1279.21053 498 1280.36842 502.438596 1285 503.017544 1280.5614 504.175439"></polygon>
                    <polygon id="Shape" points="1624.98246 183 1623.82456 178.368421 1619 177.982456 1623.63158 176.631579 1624.21053 172 1625.36842 176.631579 1630 177.017544 1625.5614 178.368421"></polygon>
                    <polygon id="Shape" points="1665.78947 146 1664.63158 141.368421 1660 140.982456 1664.4386 139.631579 1665.01754 135 1666.17544 139.631579 1671 140.017544 1666.36842 141.368421"></polygon>
                    <polygon id="Shape" points="850.87931 245 849.741379 240.368421 845 239.789474 849.551724 238.631579 850.12069 234 851.258621 238.438596 856 239.017544 851.448276 240.175439"></polygon>
                    <polygon id="Shape" points="861.982456 165 860.824561 160.368421 856 159.789474 860.631579 158.631579 861.210526 154 862.368421 158.438596 867 159.017544 862.561404 160.175439"></polygon>
                    <polygon id="Shape" points="716.982456 215 715.824561 210.368421 711 209.789474 715.631579 208.631579 716.210526 204 717.368421 208.438596 722 209.017544 717.561404 210.175439"></polygon>
                    <polygon id="Shape" points="945.982456 251 944.824561 246.368421 940 245.789474 944.631579 244.631579 945.210526 240 946.368421 244.438596 951 245.017544 946.561404 246.175439"></polygon>
                    <polygon id="Shape" points="842.982456 90 841.824561 85.3684211 837 84.7894737 841.631579 83.6315789 842.210526 79 843.368421 83.4385965 848 84.0175439 843.561404 85.1754386"></polygon>
                    <polygon id="Shape" points="395.982456 86 394.631579 81.3684211 390 80.9824561 394.631579 79.8245614 395.017544 75 396.368421 79.6315789 401 80.2105263 396.368421 81.3684211"></polygon>
                    <polygon id="Shape" points="696.789474 20 695.631579 15.3684211 691 14.9824561 695.438596 13.6315789 696.017544 9 697.175439 13.6315789 702 14.0175439 697.368421 15.3684211"></polygon>
                    <polygon id="Shape" points="811.789474 39 810.631579 34.3684211 806 33.9824561 810.438596 32.6315789 811.017544 28 812.175439 32.6315789 817 33.0175439 812.368421 34.3684211"></polygon>
                    <polygon id="Shape" points="814.789474 204 813.631579 199.368421 809 198.982456 813.438596 197.631579 814.017544 193 815.175439 197.631579 820 198.017544 815.368421 199.368421"></polygon>
                    <polygon id="Shape" points="680.789474 372 679.631579 367.368421 675 366.982456 679.438596 365.631579 680.017544 361 681.175439 365.631579 686 366.017544 681.368421 367.368421"></polygon>
                    <polygon id="Shape" points="502.789474 375 501.631579 370.368421 497 369.982456 501.438596 368.631579 502.017544 364 503.175439 368.631579 508 369.017544 503.368421 370.368421"></polygon>
                    <polygon id="Shape" points="480.789474 310 479.631579 305.368421 475 304.982456 479.438596 303.631579 480.017544 299 481.175439 303.631579 486 304.017544 481.368421 305.368421"></polygon>
                    <polygon id="Shape" points="451.789474 198 450.631579 193.368421 446 192.982456 450.438596 191.631579 451.017544 187 452.175439 191.631579 457 192.017544 452.368421 193.368421"></polygon>
                    <polygon id="Shape" points="400.789474 302 399.631579 297.368421 395 296.982456 399.438596 295.631579 400.017544 291 401.175439 295.631579 406 296.017544 401.368421 297.368421"></polygon>
                    <polygon id="Shape" points="878.789474 394 877.631579 389.368421 873 388.982456 877.438596 387.631579 878.017544 383 879.175439 387.631579 884 388.017544 879.368421 389.368421"></polygon>
                    <polygon id="Shape" points="754.789474 329 753.631579 324.368421 749 323.982456 753.438596 322.631579 754.017544 318 755.175439 322.631579 760 323.017544 755.368421 324.368421"></polygon>
                    <polygon id="Shape" points="468.789474 82 467.631579 77.3684211 463 76.9824561 467.438596 75.6315789 468.017544 71 469.175439 75.6315789 474 76.0175439 469.368421 77.3684211"></polygon>
                    <polygon id="Shape" points="384.789474 197 383.631579 192.368421 379 191.982456 383.438596 190.631579 384.017544 186 385.175439 190.631579 390 191.017544 385.368421 192.368421"></polygon>
                    <polygon id="Shape" points="407.789474 23 406.631579 18.3684211 402 17.9824561 406.438596 16.6315789 407.017544 12 408.175439 16.6315789 413 17.0175439 408.368421 18.3684211"></polygon>
                    <polygon id="Shape" points="536.789474 29 535.631579 24.3684211 531 23.9824561 535.438596 22.6315789 536.017544 18 537.175439 22.6315789 542 23.0175439 537.368421 24.3684211"></polygon>
                    <polygon id="Shape" points="933.789474 43 932.631579 38.3684211 928 37.9824561 932.438596 36.6315789 933.017544 32 934.175439 36.6315789 939 37.0175439 934.368421 38.3684211"></polygon>
                    <polygon id="Shape" points="961.789474 178 960.631579 173.368421 956 172.982456 960.438596 171.631579 961.017544 167 962.175439 171.631579 967 172.017544 962.368421 173.368421"></polygon>
                    <polygon id="Shape" points="878.789474 477 877.631579 472.368421 873 471.982456 877.438596 470.631579 878.017544 466 879.175439 470.631579 884 471.017544 879.368421 472.368421"></polygon>
                    <polygon id="Shape" points="568.789474 407 567.631579 402.368421 563 401.982456 567.438596 400.631579 568.017544 396 569.175439 400.631579 574 401.017544 569.368421 402.368421"></polygon>
                    <polygon id="Shape" points="421.789474 437 420.631579 432.368421 416 431.982456 420.438596 430.631579 421.017544 426 422.175439 430.631579 427 431.017544 422.368421 432.368421"></polygon>
                    <polygon id="Shape" points="370.982456 388 369.824561 383.368421 365 382.789474 369.631579 381.631579 370.210526 377 371.368421 381.438596 376 382.017544 371.561404 383.175439"></polygon>
                    <polygon id="Shape" points="805.982456 111 804.824561 106.368421 800 105.789474 804.631579 104.631579 805.210526 100 806.368421 104.438596 811 105.017544 806.561404 106.175439"></polygon>
                    <polygon id="Shape" points="716.982456 64 715.824561 59.3684211 711 58.9824561 715.631579 57.6315789 716.210526 53 717.368421 57.6315789 722 58.0175439 717.561404 59.3684211"></polygon>
                    <polygon id="Shape" points="757.789474 26 756.631579 21.3684211 752 20.9824561 756.438596 19.6315789 757.017544 15 758.175439 19.6315789 763 20.0175439 758.368421 21.3684211"></polygon>
                    <polygon id="Shape" points="907.789474 143 906.631579 138.368421 902 137.982456 906.438596 136.631579 907.017544 132 908.175439 136.631579 913 137.017544 908.368421 138.368421"></polygon>
                </g>
                <g id="Jupiter" transform="translate(117.000000, 71.000000)">
                    <g id="Group" transform="translate(12.000000, 0.000000)">
                        <circle id="Oval" fill="#FFDBC4" transform="translate(131.367198, 131.661958) rotate(-26.326758) translate(-131.367198, -131.661958) " cx="131.367198" cy="131.661958" r="97.9631087"></circle>
                        <path d="M34.3361111,145.380556 C35.7308081,155.475505 38.7858586,165.50404 43.5676768,175.134091 C44.630303,177.325758 45.8257576,179.45101 47.0876263,181.509848 C78.3022727,168.559091 157.534343,122.20202 158.198485,99.3555556 C143.85303,109.251263 74.8487374,141.262879 34.3361111,145.380556 Z" id="Shape" fill="#FFC39C"></path>
                        <path d="M228.796717,141.92702 C203.426515,156.139646 147.970707,182.904545 146.841667,183.568687 C153.815152,181.775505 192.933081,171.614141 225.741667,157.932828 C227.202778,152.686111 228.19899,147.37298 228.796717,141.92702 Z" id="Shape" fill="#FFC39C"></path>
                        <path d="M174.80202,219.498737 C186.358081,213.787121 196.253788,206.083081 204.289899,197.050758 C187.553535,204.887626 147.240152,223.483586 122.401263,229.261616 C139.868182,230.855556 157.999242,227.800505 174.80202,219.498737 Z" id="Shape" fill="#FFC39C"></path>
                    </g>
                    <path d="M80.8890961,168.350232 C56.9869557,120.162866 76.7840194,61.7439355 125.117988,37.8482825 C126.442206,37.1881816 127.766424,36.5940908 129.090642,36 C118.695529,37.3202018 108.300415,40.356666 98.3687777,45.3074228 C50.0348096,69.1370657 30.2377459,127.555996 54.1398863,175.809373 C77.3799176,222.676537 133.460563,242.611585 181,221.752396 C140.809974,226.967193 99.8916288,206.636085 80.8890961,168.350232 Z" id="Shape" fill="#48484A" opacity="0.1"></path>
                    <path d="M228.547643,84.4975005 C228.547643,84.5638324 232.966409,92.2583297 235.406624,99.5548359 C241.408232,99.2231765 245.299385,100.218155 246.486517,102.672434 C251.300994,112.489551 211.7959,142.073567 158.177133,168.73898 C104.558366,195.404394 57.2050146,209.06876 52.3905373,199.251642 C50.8076955,196.00138 54.0393309,190.628499 60.9642639,183.995311 C60.9642639,183.995311 60.9642639,183.995311 60.9642639,183.995311 C60.9642639,183.995311 56.2816902,176.234482 54.1052827,170.529941 C17.5680171,194.807407 -3.99820283,215.768279 0.618419174,225.121073 C8.00501438,240.178408 80.683835,219.217536 162.925658,178.29077 C245.167482,137.364004 305.777134,91.9930022 298.390538,76.9356669 C293.90582,67.9808639 266.865605,71.629117 228.547643,84.4975005 Z" id="Shape" fill="#F49C5C"></path>
                    <path d="M234.470546,85.8180823 C235.937369,88.6854381 237.00415,91.6194765 238.404299,95.2870246 C244.471613,94.9536111 248.405366,95.9538515 249.605494,98.4211111 C254.47268,108.29015 214.535086,138.03063 160.329303,164.837072 C106.12352,191.643515 58.2517459,205.380149 53.3845599,195.511111 C51.7843892,192.243659 55.0514044,186.842361 62.0521513,180.174092 C62.0521513,180.174092 62.0521513,180.174092 62.0521513,180.174092 C62.0521513,180.174092 59.6518952,176.039765 57.5850081,172.038803 C34.2491851,188.842842 21.1811242,203.046255 24.5148132,209.84789 C30.8488223,222.650966 92.7887639,204.846688 162.92958,170.171688 C233.070397,135.430005 284.80925,96.9540919 278.475241,84.151015 C275.408247,77.8161593 258.739802,79.0164477 234.470546,85.8180823 Z" id="Shape" fill="#FABB58"></path>
                </g>
                <g id="Moon" transform="translate(1519.000000, 279.500000) rotate(27.000000) translate(-1519.000000, -279.500000) translate(1427.000000, 182.000000)">
                    <path d="M77,167.000217 C34.5,167.000217 8.52651283e-14,132.500217 8.52651283e-14,90.0002168 C8.52651283e-14,47.5002168 34.5,13.0002168 77,13.0002168 C119.6,12.9002168 154,47.4002168 154,90.0002168 C154,132.500217 119.5,167.000217 77,167.000217 Z" id="Shape" fill="#E7E7E7"></path>
                    <path d="M94.7331297,20.9576208 C75.7573519,34.9869764 63.4443765,57.5216877 63.4443765,82.9115818 C63.4443765,125.411582 97.9443765,159.911582 140.444377,159.911582 C144.773815,159.911582 149.020236,159.553564 153.155623,158.865543 C140.367952,168.319847 124.554481,173.911582 107.444377,173.911582 C64.9443765,173.911582 30.4443765,139.411582 30.4443765,96.9115818 C30.4443765,58.7410241 58.2734178,27.0235775 94.7331197,20.9576225 Z" id="Combined-Shape" fill="#FDFDFD" transform="translate(91.800000, 97.434601) rotate(-150.000000) translate(-91.800000, -97.434601) "></path>
                    <path d="M60.4,74.8 C61.2,74.4 62,74 62.7,73.6 C62.7,73.5 61.9,74 60.4,74.8" id="Shape" fill="#FFEFC9"></path>
                    <path d="M31.7,103.2 C25.5,102.8 21.8,102.5 21.8,102.5 C25,102.9 28.3,103.2 31.7,103.2" id="Shape" fill="#D27546"></path>
                    <path d="M33.3,67.2 C33.3,69.7 31.3,71.7 28.8,71.7 C26.3,71.7 24.3,69.7 24.3,67.2 C24.3,64.7 26.3,62.7 28.8,62.7 C31.3,62.7 33.3,64.8 33.3,67.2" id="Shape" fill="#D2CECC"></path>
                    <path d="M91.8,137.9 C91.8,140.4 89.8,142.4 87.3,142.4 C84.8,142.4 82.8,140.4 82.8,137.9 C82.8,135.4 84.8,133.4 87.3,133.4 C89.7,133.4 91.8,135.5 91.8,137.9" id="Shape" fill="#CECECE"></path>
                    <path d="M74.9,26.7 C74.9,28.4 73.5,29.8 71.8,29.8 C70.1,29.8 68.7,28.4 68.7,26.7 C68.7,25 70.1,23.6 71.8,23.6 C73.5,23.5 74.9,24.9 74.9,26.7" id="Shape" fill="#C1BAB7"></path>
                    <path d="M104.7,46.4 C101,46.4 98,43.4 98,39.7 C98,36 101,33 104.7,33 C108.4,33 111.4,36 111.4,39.7 C111.4,43.4 108.4,46.4 104.7,46.4 Z" id="Shape" fill="#B6B3B1" opacity="0.348562047"></path>
                    <path d="M136.7,98.4 C133,98.4 130,95.4 130,91.7 C130,88 133,85 136.7,85 C140.4,85 143.4,88 143.4,91.7 C143.4,95.4 140.4,98.4 136.7,98.4 Z" id="Shape-Copy" fill="#B6B3B1" opacity="0.348562047"></path>
                    <path d="M108.2,133.4 C99.8059701,133.4 93,126.59403 93,118.2 C93,109.80597 99.8059701,103 108.2,103 C116.59403,103 123.4,109.80597 123.4,118.2 C123.4,126.59403 116.59403,133.4 108.2,133.4 Z" id="Shape-Copy-2" fill="#B6B3B1" opacity="0.348562047"></path>
                    <path d="M47.7,117.4 C44.5522388,117.4 42,114.847761 42,111.7 C42,108.552239 44.5522388,106 47.7,106 C50.8477612,106 53.4,108.552239 53.4,111.7 C53.4,114.847761 50.8477612,117.4 47.7,117.4 Z" id="Shape-Copy-3" fill="#B6B3B1" opacity="0.348562047"></path>
                    <path d="M48.7,46.4 C45.5522388,46.4 43,43.8477612 43,40.7 C43,37.5522388 45.5522388,35 48.7,35 C51.8477612,35 54.4,37.5522388 54.4,40.7 C54.4,43.8477612 51.8477612,46.4 48.7,46.4 Z" id="Shape-Copy-4" fill="#B6B3B1" opacity="0.348562047"></path>
                    <path d="M76.7,79.4 C76.7,82.7 74.1,85.3 70.8,85.3 C67.6,85.3 64.9,82.7 64.9,79.4 C64.9,76.2 67.5,73.5 70.8,73.5 C74,73.5 76.7,76.2 76.7,79.4" id="Shape" fill="#807570" opacity="0.295969203"></path>
                    <path d="M54.7,142.5 C54.7,146.6 51.4,149.9 47.3,149.9 C43.2,149.9 39.9,146.6 39.9,142.5 C39.9,138.4 43.2,135.1 47.3,135.1 C51.4,135.1 54.7,138.4 54.7,142.5" id="Shape" fill="#D9D2CE"></path>
                    <path d="M60.8,74.6 C60.8,74.6 60.8,74.6 60.8,74.6 C62,73.9 62.8,73.5 62.8,73.5 C62.1,73.9 61.5,74.2 60.8,74.6" id="Shape" fill="#FFF7E5"></path>
                    <path d="M102.2,61.8 C102.2,61.7 102.2,61.7 102.1,61.6 C103,61.4 103.9,61.3 104.8,61.1 C104,61.3 103.1,61.5 102.2,61.8 Z M129.3,67.7 C129.3,67.7 129.2,67.6 129.2,67.6 C129.5,67.6 129.9,67.6 130.2,67.5 C130.2,67.5 130.2,67.6 130.2,67.6 L129.3,67.7 Z" id="Shape" fill="#EBDABC"></path>
                    <path d="M150.6,78.2 C150.2,75.5 149.6,72.9 148.9,70.3 C148.5,68.7 148,67.2 147.5,65.7 C148.9,69.7 149.9,73.9 150.6,78.2" id="Shape" fill="#FFF5E8"></path>
                    <path d="M150.6,78.2 C150.6,77.9 150.5,77.7 150.5,77.4 C150.4,77 150.4,76.6 150.3,76.2 C150.1,75.3 149.9,74.3 149.7,73.4 C149.6,72.9 149.5,72.5 149.4,72 C149.3,71.4 149.1,70.9 149,70.3 C149.6,72.9 150.2,75.5 150.6,78.2" id="Shape" fill="#F7E4DA"></path>
                </g>
                <g id="Earth" transform="translate(332.000000, 613.000000)">
                    <path d="M71,35.5 C71,55.1118881 55.1118881,71 35.5,71 C15.8881119,71 0,55.1118881 0,35.5 C0,15.8881119 15.8881119,0 35.5,0 C54.9877622,-1.76393476e-14 71,15.8881119 71,35.5" id="Shape" fill="#7EC9C1"></path>
                    <path d="M13.1095537,28.0477329 C13.1095537,28.0477329 15.9847296,27.4421189 19.4849436,31.6814167 C22.9851576,35.9207145 21.9850965,35.5573461 25.1102876,36.2840828 C28.2354787,37.0108196 30.6106239,38.5854159 29.8605781,40.0388894 C29.2355398,41.4923629 28.3604863,44.0359416 27.7354481,45.9739063 C27.1104099,47.911871 25.2352952,46.4583975 24.2352341,47.5485026 C23.2351729,48.6386078 22.3601194,49.3653445 20.73502,53.2412739 C19.1099207,57.2383261 18.7348977,59.055168 19.8599665,60.5086415 C20.9850353,61.962115 20.2349895,62.6888518 19.1099207,61.1142555 C17.9848519,59.4185364 15.7347143,56.2693437 15.9847296,52.030046 C16.2347448,47.7907482 14.6096455,44.2781872 12.6095232,41.0078718 C10.6094008,37.8586791 9.10930912,38.8276615 10.6094008,34.8306093 C11.8594773,30.8335571 10.7344085,27.5632417 13.1095537,28.0477329" id="Shape" fill="#4BB134"></path>
                    <path d="M2,23.7195225 C2.46043165,24.4233818 2.92086331,25.127241 2.92086331,25.7137903 C2.92086331,27.4734384 3.15107914,26.3003397 4.87769784,27.7080581 C6.60431655,29.1157765 8.56115108,30.2888752 8.67625899,29.9369456 C8.67625899,29.9369456 7.29496403,27.1215088 7.0647482,25.5964804 C6.71942446,23.9541423 6.94964029,27.0041989 5.3381295,24.8926212 C3.84172662,22.7810436 4.41726619,21.1387054 6.48920863,22.3118041 C8.56115108,23.4849028 8.79136691,22.3118041 9.94244604,18.9098179 C11.0935252,15.5078317 13.1654676,14.4520428 14.0863309,13.7481836 C15.0071942,13.0443244 15.1223022,11.5192961 15.8129496,11.9885356 C16.618705,12.457775 18,11.2846764 18,10.2288875 C18,9.29040857 15.8129496,8.46923948 12.9352518,8 C7.8705036,11.8712257 4.07194245,17.3847896 2,23.7195225" id="Shape" fill="#4AB134"></path>
                    <path d="M48.8653783,32.3707151 C48.8653783,32.3707151 45.5029262,34.6651991 42.4883139,31.4046166 C39.4737016,28.1440342 39.1258617,28.2647965 39.0099151,26.5741242 C38.8939685,24.8834518 39.8215415,22.2266809 40.4012746,21.3813447 C40.8650611,20.5360086 42.0245274,18 43.5318335,18 C45.0391396,18 49.7929513,18.2415246 51.1843108,19.8114347 C52.5756703,21.2605824 56.0540691,21.2605824 57.4454286,21.3813447 C58.8367881,21.5021071 58.0251617,25.1249764 59.9962543,27.660985 C61.967347,30.1969935 64.5181727,30.0762312 61.8514004,33.095289 C59.184628,35.9935845 60.2281476,35.6312976 59.5324678,39.7372162 C58.8367881,43.8431348 55.9381224,47.5867665 54.7786562,47.9490534 C53.6191899,48.3113403 54.0829764,46.7414303 52.3437771,43.2393232 C50.6045777,39.7372162 50.8364709,39.3749292 50.9524176,36.3558714 C51.1843108,33.3368136 49.6770047,31.8876659 48.8653783,32.3707151" id="Shape" fill="#4BB134"></path>
                    <path d="M63.4161176,27.5714521 C64.2523568,28.7949666 63.8939686,27.2043978 64.6107451,25.2467747 C65.3275215,23.2891515 63.5355803,23.0444486 62.5798784,20.8421226 C61.6241764,18.6397966 64.6107451,21.8209342 66.522149,21.6985827 C66.7610745,21.6985827 66.8805373,21.5762313 67,21.5762313 C65.9248353,19.1292024 64.6107451,16.8045249 63.1771921,14.7245503 C63.2966548,15.9480648 63.2966548,16.6821735 62.3409529,15.458659 C61.5047136,14.357496 61.2657881,13.3786844 61.2657881,12.2775214 C58.9959959,9.58578963 56.3678155,7.38346361 53.3812468,5.42584048 C53.2617841,5.91524626 52.9033958,6.40465204 52.3060821,6.52700349 C50.2752154,6.89405782 49.3195134,7.6281665 50.1557527,6.2823006 C50.6336036,5.54819192 51.4698429,5.05878614 51.8282311,4.44702891 C50.0362899,3.46821735 48.2443487,2.73410867 46.3329448,2 C46.213482,2.48940578 46.4524075,3.10116301 47.169184,3.46821735 C49.2000507,4.44702891 49.7973644,5.79289481 48.0054232,6.40465204 C46.213482,6.89405782 45.9745565,4.07997458 44.4215408,3.3458659 C42.8685251,2.61175723 39.8819564,3.3458659 41.4349721,5.05878614 C42.9879878,6.89405782 45.25778,6.40465204 45.4967055,8.60697806 C45.735631,10.6869526 42.9879878,11.4210613 42.3906741,11.4210613 C41.9128231,11.4210613 41.9128231,13.7457388 41.9128231,13.7457388 C41.9128231,13.7457388 44.1826153,16.6821735 45.3772428,14.9692532 C46.5718702,13.256333 45.9745565,9.95284396 50.7530664,12.6445758 C55.5315763,15.3363076 57.562443,14.1127931 58.6376077,16.6821735 C59.5933097,19.3739053 59.2349214,20.4750683 60.6684744,22.7997458 C60.4295489,23.0444486 62.5798784,26.4702891 63.4161176,27.5714521" id="Shape" fill="#4BB134"></path>
                    <path d="M20,5.16303957 C20.7272727,5.43808649 21.5757576,5.71313341 22.4242424,5.57560995 C24.1212121,5.02551611 23.6363636,6.81332108 24.1212121,7.63846184 C24.4848485,8.60112605 25.6969697,7.50093838 25.9393939,5.98818032 C26.1818182,4.47542227 26.3030303,4.06285189 27.3939394,2.96266422 C27.7575758,2.55009384 27.8787879,2.27504692 28,2 C25.0909091,2.6876173 22.4242424,3.78780497 20,5.16303957" id="Shape" fill="#4AB134"></path>
                    <path d="M38,71 C37.1012757,70.3112129 35.8173837,69.3469111 34.1483243,68.5203666 C30.2966485,66.316248 33.3779891,64.9386739 31.965708,63.6988572 C30.6818161,62.4590404 27.3436971,63.0100701 28.1140323,64.2498868 C28.8843674,65.6274609 29.0127566,65.9029758 29.0127566,68.5203666 C29.0127566,69.3469111 29.269535,69.8979407 29.5263134,70.3112129 C31.7089296,70.7244852 33.7631567,71 36.0741621,71 C36.7161081,71 37.358054,71 38,71" id="Shape" fill="#4BB134"></path>
                    <path d="M61,59 C58.8961039,59.8433735 55.3896104,62.373494 53.2857143,62.4939759 C50.012987,62.7349398 49.4285714,62.7349398 46.3896104,65.0240964 C43.3506494,67.313253 45.5714286,66.7108434 43.9350649,68.0361446 C43.5844156,68.3975904 43.2337662,68.6385542 43,69 C50.012987,67.6746988 56.3246753,64.060241 61,59" id="Shape" fill="#4BB134"></path>
                </g>
            </g>
        </g>
    </g>
</svg>