<?xml version="1.0" encoding="UTF-8"?>
<svg width="567px" height="341px" viewBox="0 0 567 341" version="1.1" xmlns="http://www.w3.org/2000/svg" xmlns:xlink="http://www.w3.org/1999/xlink">
    <!-- Generator: Sketch 49.3 (51167) - http://www.bohemiancoding.com/sketch -->
    <title>tothemoon</title>
    <desc>Created with Sketch.</desc>
    <defs>
        <linearGradient x1="50%" y1="0%" x2="50%" y2="100%" id="linearGradient-1">
            <stop stop-color="#00B0FF" offset="0%"></stop>
            <stop stop-color="#25D3D5" offset="100%"></stop>
        </linearGradient>
        <polygon id="path-2" points="0 2.75862069e-05 39.9999724 2.75862069e-05 39.9999724 40 0 40"></polygon>
        <polygon id="path-4" points="0.0561094178 0.0976415094 32.3882143 0.0976415094 32.3882143 35.2887016 0.0561094178 35.2887016"></polygon>
    </defs>
    <g id="iPad-Portrait" stroke="none" stroke-width="1" fill="none" fill-rule="evenodd">
        <g id="About-2.0" transform="translate(-726.000000, -2125.000000)">
            <g id="tothemoon" transform="translate(726.000000, 2125.000000)">
                <polygon id="Shape" fill="#2C4B7A" fill-rule="nonzero" points="454.810345 261 453.87931 257.210526 450 256.736842 453.724138 255.789474 454.189655 252 455.12069 255.631579 459 256.105263 455.275862 257.052632"></polygon>
                <polygon id="Shape" fill="#2C4B7A" fill-rule="nonzero" points="536.894737 109 535.947368 105.210526 532 104.736842 535.789474 103.789474 536.263158 100 537.210526 103.631579 541 104.105263 537.368421 105.052632"></polygon>
                <polygon id="Shape" fill="#2C4B7A" fill-rule="nonzero" points="190.894737 107 189.789474 103.210526 186 102.894737 189.789474 101.947368 190.105263 98 191.210526 101.789474 195 102.263158 191.210526 103.210526"></polygon>
                <polygon id="Shape" fill="#2C4B7A" fill-rule="nonzero" points="423.736842 55 422.789474 51.2105263 419 50.8947368 422.631579 49.7894737 423.105263 46 424.052632 49.7894737 428 50.1052632 424.210526 51.2105263"></polygon>
                <polygon id="Shape" fill="#2C4B7A" fill-rule="nonzero" points="512.736842 70 511.789474 66.2105263 508 65.8947368 511.631579 64.7894737 512.105263 61 513.052632 64.7894737 517 65.1052632 513.210526 66.2105263"></polygon>
                <polygon id="Shape" fill="#2C4B7A" fill-rule="nonzero" points="514.736842 198 513.789474 194.210526 510 193.894737 513.631579 192.789474 514.105263 189 515.052632 192.789474 519 193.105263 515.210526 194.210526"></polygon>
                <polygon id="Shape" fill="#2C4B7A" fill-rule="nonzero" points="299.736842 247 298.789474 243.210526 295 242.894737 298.631579 241.789474 299.105263 238 300.052632 241.789474 304 242.105263 300.210526 243.210526"></polygon>
                <polygon id="Shape" fill="#2C4B7A" fill-rule="nonzero" points="233.736842 192 232.789474 188.210526 229 187.894737 232.631579 186.789474 233.105263 183 234.052632 186.789474 238 187.105263 234.210526 188.210526"></polygon>
                <polygon id="Shape" fill="#2C4B7A" fill-rule="nonzero" points="338.736842 201 337.789474 197.210526 334 196.894737 337.631579 195.789474 338.105263 192 339.052632 195.789474 343 196.105263 339.210526 197.210526"></polygon>
                <polygon id="Shape" fill="#2C4B7A" fill-rule="nonzero" points="246.736842 104 245.789474 100.210526 242 99.8947368 245.631579 98.7894737 246.105263 95 247.052632 98.7894737 251 99.1052632 247.210526 100.210526"></polygon>
                <polygon id="Shape" fill="#2C4B7A" fill-rule="nonzero" points="181.736842 191 180.789474 187.210526 177 186.894737 180.631579 185.789474 181.105263 182 182.052632 185.789474 186 186.105263 182.210526 187.210526"></polygon>
                <polygon id="Shape" fill="#2C4B7A" fill-rule="nonzero" points="199.736842 58 198.789474 54.2105263 195 53.8947368 198.631579 52.7894737 199.105263 49 200.052632 52.7894737 204 53.1052632 200.210526 54.2105263"></polygon>
                <polygon id="Shape" fill="#2C4B7A" fill-rule="nonzero" points="299.736842 63 298.789474 59.2105263 295 58.8947368 298.631579 57.7894737 299.105263 54 300.052632 57.7894737 304 58.1052632 300.210526 59.2105263"></polygon>
                <polygon id="Shape" fill="#2C4B7A" fill-rule="nonzero" points="170.894737 341 169.947368 337.210526 166 336.736842 169.789474 335.789474 170.263158 332 171.210526 335.631579 175 336.105263 171.368421 337.052632"></polygon>
                <polygon id="Shape" fill="#2C4B7A" fill-rule="nonzero" points="507.894737 126 506.947368 122.210526 503 121.736842 506.789474 120.789474 507.263158 117 508.210526 120.631579 512 121.105263 508.368421 122.052632"></polygon>
                <polygon id="Shape" fill="#2C4B7A" fill-rule="nonzero" points="438.894737 88 437.947368 84.2105263 434 83.8947368 437.789474 82.7894737 438.263158 79 439.210526 82.7894737 443 83.1052632 439.368421 84.2105263"></polygon>
                <polygon id="Shape" fill="#2C4B7A" fill-rule="nonzero" points="469.736842 60 468.789474 56.2105263 465 55.8947368 468.631579 54.7894737 469.105263 51 470.052632 54.7894737 474 55.1052632 470.210526 56.2105263"></polygon>
                <polygon id="Shape" fill="#2C4B7A" fill-rule="nonzero" points="90.8103448 200 89.8793103 196.210526 86 195.736842 89.7241379 194.789474 90.1896552 191 91.1206897 194.631579 95 195.105263 91.2758621 196.052632"></polygon>
                <polygon id="Shape" fill="#2C4B7A" fill-rule="nonzero" points="98.8947368 138 97.9473684 134.210526 94 133.736842 97.7894737 132.789474 98.2631579 129 99.2105263 132.631579 103 133.105263 99.3684211 134.052632"></polygon>
                <polygon id="Shape" fill="#2C4B7A" fill-rule="nonzero" points="164.894737 94 163.947368 90.2105263 160 89.7368421 163.789474 88.7894737 164.263158 85 165.210526 88.6315789 169 89.1052632 165.368421 90.0526316"></polygon>
                <polygon id="Shape" fill="#2C4B7A" fill-rule="nonzero" points="164.894737 205 163.947368 201.210526 160 200.736842 163.789474 199.789474 164.263158 196 165.210526 199.631579 169 200.105263 165.368421 201.052632"></polygon>
                <polygon id="Shape" fill="#2C4B7A" fill-rule="nonzero" points="84.8947368 79 83.9473684 75.2105263 80 74.7368421 83.7894737 73.7894737 84.2631579 70 85.2105263 73.6315789 89 74.1052632 85.3684211 75.0526316"></polygon>
                <polygon id="Shape" fill="#2C4B7A" fill-rule="nonzero" points="60.7368421 41 59.7894737 37.2105263 56 36.8947368 59.6315789 35.7894737 60.1052632 32 61.0526316 35.7894737 65 36.1052632 61.2105263 37.2105263"></polygon>
                <polygon id="Shape" fill="#2C4B7A" fill-rule="nonzero" points="62.7368421 169 61.7894737 165.210526 58 164.894737 61.6315789 163.789474 62.1052632 160 63.0526316 163.789474 67 164.105263 63.2105263 165.210526"></polygon>
                <polygon id="Shape" fill="#2C4B7A" fill-rule="nonzero" points="111.736842 316 110.789474 312.210526 107 311.894737 110.631579 310.789474 111.105263 307 112.052632 310.789474 116 311.105263 112.210526 312.210526"></polygon>
                <polygon id="Shape" fill="#2C4B7A" fill-rule="nonzero" points="130.736842 251 129.789474 247.210526 126 246.894737 129.631579 245.789474 130.105263 242 131.052632 245.789474 135 246.105263 131.210526 247.210526"></polygon>
                <polygon id="Shape" fill="#2C4B7A" fill-rule="nonzero" points="155.736842 44 154.789474 40.2105263 151 39.8947368 154.631579 38.7894737 155.105263 35 156.052632 38.7894737 160 39.1052632 156.210526 40.2105263"></polygon>
                <polygon id="Shape" fill="#2C4B7A" fill-rule="nonzero" points="177.736842 148 176.789474 144.210526 173 143.894737 176.631579 142.789474 177.105263 139 178.052632 142.789474 182 143.105263 178.210526 144.210526"></polygon>
                <polygon id="Shape" fill="#2C4B7A" fill-rule="nonzero" points="210.736842 322 209.789474 318.210526 206 317.894737 209.631579 316.789474 210.105263 313 211.052632 316.789474 215 317.105263 211.210526 318.210526"></polygon>
                <polygon id="Shape" fill="#2C4B7A" fill-rule="nonzero" points="54.8947368 97 53.9473684 93.2105263 50 92.7368421 53.7894737 91.7894737 54.2631579 88 55.2105263 91.6315789 59 92.1052632 55.3684211 93.0526316"></polygon>
                <polygon id="Shape" fill="#2C4B7A" fill-rule="nonzero" points="136.736842 120 135.789474 116.210526 132 115.894737 135.631579 114.789474 136.105263 111 137.052632 114.789474 141 115.105263 137.210526 116.210526"></polygon>
                <polygon id="Shape" fill="#2C4B7A" fill-rule="nonzero" points="496.894737 57 495.789474 53.2105263 492 52.8947368 495.789474 51.9473684 496.105263 48 497.210526 51.7894737 501 52.2631579 497.210526 53.2105263"></polygon>
                <polygon id="Shape" fill="#2C4B7A" fill-rule="nonzero" points="562.736842 231 561.789474 227.210526 558 226.894737 561.631579 225.789474 562.105263 222 563.052632 225.789474 567 226.105263 563.210526 227.210526"></polygon>
                <polygon id="Shape" fill="#2C4B7A" fill-rule="nonzero" points="540.736842 143 539.789474 139.210526 536 138.894737 539.631579 137.789474 540.105263 134 541.052632 137.789474 545 138.105263 541.210526 139.210526"></polygon>
                <polygon id="Shape" fill="#2C4B7A" fill-rule="nonzero" points="500.736842 224 499.789474 220.210526 496 219.894737 499.631579 218.789474 500.105263 215 501.052632 218.789474 505 219.105263 501.210526 220.210526"></polygon>
                <polygon id="Shape" fill="#2C4B7A" fill-rule="nonzero" points="553.736842 54 552.789474 50.2105263 549 49.8947368 552.631579 48.7894737 553.105263 45 554.052632 48.7894737 558 49.1052632 554.210526 50.2105263"></polygon>
                <polygon id="Shape" fill="#2C4B7A" fill-rule="nonzero" points="488.736842 143 487.789474 139.210526 484 138.894737 487.631579 137.789474 488.105263 134 489.052632 137.789474 493 138.105263 489.210526 139.210526"></polygon>
                <polygon id="Shape" fill="#2C4B7A" fill-rule="nonzero" points="506.736842 9 505.789474 5.21052632 502 4.89473684 505.631579 3.78947368 506.105263 0 507.052632 3.78947368 511 4.10526316 507.210526 5.21052632"></polygon>
                <polygon id="Shape" fill="#2C4B7A" fill-rule="nonzero" points="373.810345 187 372.87931 183.210526 369 182.736842 372.724138 181.789474 373.189655 178 374.12069 181.631579 378 182.105263 374.275862 183.052632"></polygon>
                <polygon id="Shape" fill="#2C4B7A" fill-rule="nonzero" points="381.894737 126 380.947368 122.210526 377 121.736842 380.789474 120.789474 381.263158 117 382.210526 120.631579 386 121.105263 382.368421 122.052632"></polygon>
                <polygon id="Shape" fill="#2C4B7A" fill-rule="nonzero" points="270.894737 164 269.947368 160.210526 266 159.736842 269.789474 158.789474 270.263158 155 271.210526 158.631579 275 159.105263 271.368421 160.052632"></polygon>
                <polygon id="Shape" fill="#2C4B7A" fill-rule="nonzero" points="447.894737 191 446.947368 187.210526 443 186.736842 446.789474 185.789474 447.263158 182 448.210526 185.631579 452 186.105263 448.368421 187.052632"></polygon>
                <polygon id="Shape" fill="#2C4B7A" fill-rule="nonzero" points="367.894737 67 366.947368 63.2105263 363 62.7368421 366.789474 61.7894737 367.263158 58 368.210526 61.6315789 372 62.1052632 368.368421 63.0526316"></polygon>
                <polygon id="Shape" fill="#2C4B7A" fill-rule="nonzero" points="344.736842 27 343.789474 23.2105263 340 22.8947368 343.631579 21.7894737 344.105263 18 345.052632 21.7894737 349 22.1052632 345.210526 23.2105263"></polygon>
                <polygon id="Shape" fill="#2C4B7A" fill-rule="nonzero" points="345.736842 156 344.789474 152.210526 341 151.894737 344.631579 150.789474 345.105263 147 346.052632 150.789474 350 151.105263 346.210526 152.210526"></polygon>
                <polygon id="Shape" fill="#2C4B7A" fill-rule="nonzero" points="241.736842 286 240.789474 282.210526 237 281.894737 240.631579 280.789474 241.105263 277 242.052632 280.789474 246 281.105263 242.210526 282.210526"></polygon>
                <polygon id="Shape" fill="#2C4B7A" fill-rule="nonzero" points="103.736842 288 102.789474 284.210526 99 283.894737 102.631579 282.789474 103.105263 279 104.052632 282.789474 108 283.105263 104.210526 284.210526"></polygon>
                <polygon id="Shape" fill="#2C4B7A" fill-rule="nonzero" points="85.7368421 238 84.7894737 234.210526 81 233.894737 84.6315789 232.789474 85.1052632 229 86.0526316 232.789474 90 233.105263 86.2105263 234.210526"></polygon>
                <polygon id="Shape" fill="#2C4B7A" fill-rule="nonzero" points="64.7368421 150 63.7894737 146.210526 60 145.894737 63.6315789 144.789474 64.1052632 141 65.0526316 144.789474 69 145.105263 65.2105263 146.210526"></polygon>
                <polygon id="Shape" fill="#2C4B7A" fill-rule="nonzero" points="24.7368421 231 23.7894737 227.210526 20 226.894737 23.6315789 225.789474 24.1052632 222 25.0526316 225.789474 29 226.105263 25.2105263 227.210526"></polygon>
                <polygon id="Shape" fill="#2C4B7A" fill-rule="nonzero" points="395.736842 303 394.789474 299.210526 391 298.894737 394.631579 297.789474 395.105263 294 396.052632 297.789474 400 298.105263 396.210526 299.210526"></polygon>
                <polygon id="Shape" fill="#2C4B7A" fill-rule="nonzero" points="412.736842 240 411.789474 236.210526 408 235.894737 411.631579 234.789474 412.105263 231 413.052632 234.789474 417 235.105263 413.210526 236.210526"></polygon>
                <polygon id="Shape" fill="#2C4B7A" fill-rule="nonzero" points="78.7368421 61 77.7894737 57.2105263 74 56.8947368 77.6315789 55.7894737 78.1052632 52 79.0526316 55.7894737 83 56.1052632 79.2105263 57.2105263"></polygon>
                <polygon id="Shape" fill="#2C4B7A" fill-rule="nonzero" points="12.7368421 150 11.7894737 146.210526 8 145.894737 11.6315789 144.789474 12.1052632 141 13.0526316 144.789474 17 145.105263 13.2105263 146.210526"></polygon>
                <polygon id="Shape" fill="#2C4B7A" fill-rule="nonzero" points="438.736842 31 437.789474 27.2105263 434 26.8947368 437.631579 25.7894737 438.105263 22 439.052632 25.7894737 443 26.1052632 439.210526 27.2105263"></polygon>
                <polygon id="Shape" fill="#2C4B7A" fill-rule="nonzero" points="459.736842 135 458.789474 131.210526 455 130.894737 458.631579 129.789474 459.105263 126 460.052632 129.789474 464 130.105263 460.210526 131.210526"></polygon>
                <polygon id="Shape" fill="#2C4B7A" fill-rule="nonzero" points="454.736842 309 453.789474 305.210526 450 304.894737 453.631579 303.789474 454.105263 300 455.052632 303.789474 459 304.105263 455.210526 305.210526"></polygon>
                <polygon id="Shape" fill="#2C4B7A" fill-rule="nonzero" points="155.736842 313 154.789474 309.210526 151 308.894737 154.631579 307.789474 155.105263 304 156.052632 307.789474 160 308.105263 156.210526 309.210526"></polygon>
                <polygon id="Shape" fill="#2C4B7A" fill-rule="nonzero" points="170.810345 277 169.87931 273.275862 166 272.810345 169.724138 271.87931 170.189655 268 171.12069 271.724138 175 272.189655 171.275862 273.12069"></polygon>
                <polygon id="Shape" fill="#2C4B7A" fill-rule="nonzero" points="324.894737 284 323.947368 280.210526 320 279.736842 323.789474 278.789474 324.263158 275 325.210526 278.631579 329 279.105263 325.368421 280.052632"></polygon>
                <polygon id="Shape" fill="#2C4B7A" fill-rule="nonzero" points="338.894737 83 337.947368 79.2105263 334 78.7368421 337.789474 77.7894737 338.263158 74 339.210526 77.6315789 343 78.1052632 339.368421 79.0526316"></polygon>
                <polygon id="Shape" fill="#2C4B7A" fill-rule="nonzero" points="269.894737 47 268.947368 43.2105263 265 42.8947368 268.789474 41.7894737 269.263158 38 270.210526 41.7894737 274 42.1052632 270.368421 43.2105263"></polygon>
                <polygon id="Shape" fill="#2C4B7A" fill-rule="nonzero" points="301.736842 18 300.789474 14.2105263 297 13.8947368 300.631579 12.7894737 301.105263 9 302.052632 12.7894737 306 13.1052632 302.210526 14.2105263"></polygon>
                <polygon id="Shape" fill="#2C4B7A" fill-rule="nonzero" points="417.736842 107 416.789474 103.210526 413 102.894737 416.631579 101.789474 417.105263 98 418.052632 101.789474 422 102.105263 418.210526 103.210526"></polygon>
                <g id="Jupiter" transform="translate(56.000000, 59.000000)" fill-rule="nonzero">
                    <g id="Group" transform="translate(2.000000, 0.000000)">
                        <ellipse id="Oval" fill="#FFDBC4" transform="translate(30.072560, 29.536379) rotate(-26.326758) translate(-30.072560, -29.536379) " cx="30.0725602" cy="29.5363793" rx="22.0050384" ry="22.0047261"></ellipse>
                        <path d="M8.27687784,32.6178862 C8.59016272,34.8854398 9.27640578,37.1380752 10.3505254,39.301202 C10.5892186,39.7934998 10.8577485,40.2708795 11.1411967,40.7333411 C18.1528106,37.8243086 35.9503752,27.4114638 36.0995585,22.279632 C32.8771998,24.5024312 17.3770576,31.692963 8.27687784,32.6178862 Z" id="Shape" fill="#FFC39C"></path>
                        <path d="M51.9577405,31.8421442 C46.2589394,35.0346209 33.8021361,41.0466215 33.5485245,41.1958027 C35.1149489,40.7930136 43.9018437,38.5105419 51.2714975,35.43741 C51.5997007,34.2588789 51.8234756,33.0654296 51.9577405,31.8421442 Z" id="Shape" fill="#FFC39C"></path>
                        <path d="M39.8291403,49.2665033 C42.4249293,47.9835453 44.6477601,46.2530439 46.4528777,44.2241802 C42.6934592,45.9845178 33.6380345,50.1615902 28.05858,51.4594663 C31.9821001,51.8175011 36.0548035,51.1312677 39.8291403,49.2665033 Z" id="Shape" fill="#FFC39C"></path>
                    </g>
                    <path d="M18.3471677,38.0175785 C12.9386542,27.0884851 17.4182818,13.8388307 28.3551651,8.4191981 C28.6548057,8.26948449 28.9544463,8.13474225 29.254087,8 C26.901908,8.29942722 24.5497289,8.98810981 22.3024242,10.1109619 C11.3655409,15.5156231 6.88591331,28.7652775 12.2944268,39.7093422 C17.55312,50.3390084 30.2429011,54.8603594 41,50.1294094 C31.9059066,51.3121469 22.6470109,46.7009678 18.3471677,38.0175785 Z" id="Shape" fill="#48484A" opacity="0.1"></path>
                    <g id="Group-4" transform="translate(0.000000, 16.000000)">
                        <path d="M51.2130169,2.76843365 C51.2130169,2.78312742 52.2031753,4.48760469 52.7499793,6.10391934 C54.0948213,6.03045049 54.9667519,6.25085703 55.2327646,6.7945265 C56.3115939,8.96920439 47.4592819,15.5226256 35.4443743,21.4295209 C23.4294666,27.3364163 12.818515,30.3633328 11.7396856,28.1886549 C11.385002,27.4686602 12.1091477,26.2784649 13.6608886,24.8090879 C13.6608886,24.8090879 13.6608886,24.8090879 13.6608886,24.8090879 C13.6608886,24.8090879 12.6116162,23.0899169 12.1239262,21.8262527 C3.93664597,27.2041724 -0.895918359,31.8474035 0.138575534,33.919225 C1.79376576,37.2547107 18.0796553,32.6114795 36.5084251,23.5454238 C54.9371949,14.479368 68.5186219,4.42882961 66.8634317,1.09334393 C65.8584947,-0.890314955 59.7993162,-0.0821576314 51.2130169,2.76843365 Z" id="Shape" fill="#F49C5C"></path>
                        <path d="M52.0463574,3.30255574 C52.3742355,3.94450106 52.6126923,4.60137534 52.9256669,5.42246819 C54.28189,5.34782338 55.1611995,5.5717578 55.4294634,6.12412935 C56.5174226,8.33361557 47.5901957,14.9919321 35.4736089,20.9933744 C23.3570221,26.9948167 12.6562726,30.0701827 11.5683134,27.8606964 C11.2106282,27.1291774 11.9409022,25.9199315 13.505775,24.4270354 C13.505775,24.4270354 13.505775,24.4270354 13.505775,24.4270354 C13.505775,24.4270354 12.9692472,23.5014399 12.5072371,22.6057022 C7.29099431,26.3678004 4.36989835,29.547669 5.11507589,31.070423 C6.53091322,33.9367835 20.3763119,29.950751 36.0548474,22.1876913 C51.7333828,14.4097027 63.2985383,5.79569221 61.8827009,2.92933172 C61.1971376,1.51108043 57.4712499,1.77980173 52.0463574,3.30255574 Z" id="Shape" fill="#FABB58"></path>
                    </g>
                </g>
                <path d="M60,251 C92.8926236,212.723511 139.572873,140.837505 179.574184,175.170355 C222.829882,212.296423 234.491097,241.191488 261.33127,199.997894 C288.171442,158.8043 318.593164,92.0342526 354.33033,157.179194 C390.067497,222.324136 417.801227,220.733767 450.151534,175.170355 C482.501842,129.606943 510.082956,76.1227306 518,90.3335799" id="Curve" stroke="url(#linearGradient-1)" stroke-dasharray="5"></path>
                <g id="BTC" transform="translate(487.000000, 49.000000)">
                    <g id="btc">
                        <path d="M49.2507799,31.0501433 C45.9137039,44.4420073 32.3458947,52.5927288 18.9500895,49.250638 C5.55428431,45.9085471 -2.59265132,32.3474286 0.749674835,18.9543146 C4.09200099,5.56120063 17.65306,-2.59327098 31.0458651,0.749319863 C44.4386703,4.0919107 52.5931061,17.6537793 49.2507799,31.0501433 Z" id="Shape" fill="#F7931A" fill-rule="nonzero"></path>
                        <path d="M36.5217913,21.2824026 C37.0285438,17.9508648 34.4458394,16.1597908 30.9138662,14.9650738 L32.0609418,10.4523385 L29.2630969,9.76785484 L28.1455904,14.1619196 C27.4109522,13.9821613 26.6559216,13.8114159 25.9054792,13.6441756 L27.0270643,9.22106905 L24.2320234,8.53658537 L23.0882616,13.0475682 L17.4466889,11.6750958 L16.7023643,14.6095629 C16.7023643,14.6095629 18.7778064,15.0767343 18.7339626,15.1057761 C19.8667635,15.3836754 20.0722175,16.1197332 20.0375503,16.7035723 L16.8986417,29.066339 C16.759973,29.4043247 16.408713,29.9110529 15.6169759,29.7172745 C15.6450155,29.757332 13.5838481,29.2165549 13.5838481,29.2165549 L12.195122,32.3658307 L17.8285376,33.7628384 L16.670756,38.3281493 L19.4645223,39.012633 L20.6115979,34.4963926 C21.376315,34.6996848 22.1155415,34.8874546 22.8399834,35.0642086 L21.6974962,39.5594188 L24.4948312,40.2439024 L25.6526128,35.6873542 C30.4226629,36.5736278 34.0096957,36.216114 35.5174629,31.9820292 C36.7338728,28.570877 35.457815,26.603049 32.9480136,25.3192039 C34.7756873,24.9036067 36.152178,23.7234106 36.5194971,21.2841551 M30.1287567,30.0848026 C29.2620773,33.4959549 23.4158154,31.6525557 21.5188073,31.1893901 L23.0548689,25.1419492 C24.9508574,25.606617 31.030613,26.5269396 30.1297763,30.0843019 M30.9964556,21.2340831 C30.2077774,24.3385446 25.3398435,22.7612779 23.7599381,22.3742216 L25.1507035,16.8878371 C26.7311188,17.275394 31.8167421,17.996931 30.9944164,21.2338328" id="Shape" fill="#FFFFFF" fill-rule="nonzero"></path>
                    </g>
                </g>
                <g id="DASH" transform="translate(263.000000, 139.000000)">
                    <g id="dash">
                        <circle id="Oval" fill="#2573C2" fill-rule="nonzero" cx="19.5" cy="19.5" r="19.5"></circle>
                        <g id="Group" transform="translate(6.500000, 11.818182)" fill="#FFFFFF" fill-rule="nonzero">
                            <path d="M25.6958605,2.35831818 C25.6694794,1.92796312 25.5402564,1.50964055 25.3185581,1.13690909 C25.1220465,0.752818182 24.7722558,0.453227273 24.3635116,0.299590909 C23.9466782,0.0965750764 23.4848848,-0.00239380172 23.0193721,0.0115227273 L5.577,0.0115227273 L4.32718605,3.67190909 L20.1306512,3.67190909 L17.6349535,11.154 L1.8354186,11.154 L0.585604651,14.8143864 L18.1105116,14.8143864 C18.6326988,14.7996152 19.1489963,14.7023343 19.6393721,14.5263182 C20.1306512,14.2536136 20.6926744,13.9770682 21.1682326,13.5929773 C21.6325166,13.2352675 22.0520179,12.8253003 22.4180465,12.3715682 C22.720616,11.9270036 22.9785865,11.4549451 23.1883721,10.9619545 L25.5032791,3.84859091 C25.713875,3.38056316 25.7807809,2.86281811 25.6958605,2.35831818 Z" id="Shape"></path>
                            <polygon id="Shape" points="10.5566047 5.71527273 1.25767442 5.71527273 0.00786046512 9.09911364 9.40111628 9.09911364"></polygon>
                        </g>
                    </g>
                </g>
                <g id="OMG" transform="translate(423.000000, 163.000000)">
                    <g id="Page-1">
                        <path d="M16.0640552,14.2199724 C14.2833655,14.2199724 12.8397793,15.6671448 12.8397793,17.4530759 C12.8397793,19.238731 14.2833655,20.6864552 16.064331,20.6864552 C17.8450207,20.6864552 19.288331,19.238731 19.288331,17.4530759 L19.288331,17.4536276 L19.2899862,17.4536276 C19.2872276,15.6682483 17.844469,14.2199724 16.0640552,14.2199724" id="Fill-1" fill="#415FAB"></path>
                        <path d="M25.9414621,14.2211862 C24.1599448,14.2211862 22.7171862,15.6689103 22.7171862,17.4548414 C22.7171862,19.2407724 24.1613241,20.6884966 25.9411862,20.6884966 L25.9414621,20.6882207 C27.7199448,20.6851862 29.1629793,19.2399448 29.1657379,17.4548414 C29.1657379,15.6689103 27.7227034,14.2211862 25.9414621,14.2211862" id="Fill-3" fill="#415FAB"></path>
                        <g id="Group-7">
                            <mask id="mask-3" fill="white">
                                <use xlink:href="#path-2"></use>
                            </mask>
                            <g id="Clip-6"></g>
                            <path d="M25.9412138,22.0913379 C23.3870069,22.0913379 21.3161103,20.0149241 21.3161103,17.453269 C21.3161103,14.8916138 23.3870069,12.8149241 25.9412138,12.8149241 L25.9414897,12.8149241 C28.4959724,12.8149241 30.5663172,14.8916138 30.5663172,17.453269 C30.5663172,20.0149241 28.4954207,22.0913379 25.9412138,22.0913379 M20.3310069,19.2505103 C19.3392828,21.6116138 16.6212138,22.7216828 14.2598345,21.7299586 C12.2328,20.8706483 11.0888,18.6968552 11.5263172,16.5329931 C11.9641103,14.3685793 13.8623172,12.8135448 16.0639724,12.8149241 L20.6876966,12.8149241 L20.6876966,14.2176828 L19.3762483,14.2176828 C20.6763862,15.5514759 21.0523862,17.5335448 20.3310069,19.2505103 M16.0642483,31.985131 C13.5100414,31.985131 11.4394207,29.9084414 11.4394207,27.3470621 C11.4394207,24.7854069 13.5100414,22.7087172 16.0639724,22.7087172 L16.0642483,22.7087172 C18.6184552,22.7087172 20.6893517,24.7854069 20.6893517,27.3470621 C20.6893517,29.9084414 18.6184552,31.985131 16.0642483,31.985131 M19.9999724,2.75862069e-05 C8.95445517,2.75862069e-05 -2.75862069e-05,8.95423448 -2.75862069e-05,20.0000276 C-2.75862069e-05,31.0455448 8.95445517,40.0000276 19.9999724,40.0000276 C31.0457655,40.0000276 39.9999724,31.0455448 39.9999724,20.0000276 C39.9999724,8.95423448 31.0457655,2.75862069e-05 19.9999724,2.75862069e-05" id="Fill-5" fill="#415FAB" mask="url(#mask-3)"></path>
                        </g>
                        <path d="M16.0640552,24.1150345 C14.2833655,24.1150345 12.8397793,25.5627586 12.8397793,27.3486897 C12.8397793,29.1346207 14.2839172,30.582069 16.0640552,30.582069 C17.8436414,30.5801379 19.2855724,29.1329655 19.288331,27.3486897 C19.288331,25.5627586 17.844469,24.1150345 16.0640552,24.1150345" id="Fill-8" fill="#415FAB"></path>
                        <path d="M25.9414621,20.6881655 L25.9411862,20.6884414 C24.1613241,20.6884414 22.7171862,19.2407172 22.7171862,17.4547862 C22.7171862,15.6688552 24.1599448,14.221131 25.9414621,14.221131 C27.7227034,14.221131 29.1657379,15.6688552 29.1657379,17.4547862 C29.1629793,19.2398897 27.7199448,20.685131 25.9414621,20.6881655 M25.9414621,12.8147862 L25.9411862,12.8147862 C23.3869793,12.8147862 21.3160828,14.8914759 21.3160828,17.453131 C21.3160828,20.0147862 23.3869793,22.0912 25.9411862,22.0912 C28.4953931,22.0912 30.5662897,20.0147862 30.5662897,17.453131 C30.5662897,14.8914759 28.4959448,12.8147862 25.9414621,12.8147862" id="Fill-10" fill="#FEFEFE"></path>
                        <path d="M16.0640552,30.5821793 C14.2839172,30.5821793 12.8397793,29.1344552 12.8397793,27.3485241 C12.8397793,25.5625931 14.2833655,24.1151448 16.0640552,24.1151448 C17.844469,24.1151448 19.288331,25.5625931 19.288331,27.3485241 C19.2855724,29.1330759 17.8436414,30.5799724 16.0640552,30.5821793 M16.064331,22.7088 L16.0640552,22.7088 C13.5098483,22.7088 11.4392276,24.7854897 11.4392276,27.346869 C11.4392276,29.9085241 13.5098483,31.9852138 16.064331,31.9852138 C18.6185379,31.9852138 20.6894345,29.9085241 20.6894345,27.346869 C20.6894345,24.7854897 18.6185379,22.7088 16.064331,22.7088" id="Fill-12" fill="#FEFEFE"></path>
                        <path d="M19.288469,17.4536552 L19.288469,17.4531034 C19.288469,19.2387586 17.8451586,20.6864828 16.0641931,20.6864828 C14.2832276,20.6864828 12.8399172,19.2387586 12.8399172,17.4531034 C12.8399172,15.6671724 14.2832276,14.22 16.0641931,14.22 C17.8446069,14.22 19.2870897,15.6682759 19.2901241,17.4536552 L19.288469,17.4536552 Z M20.6876414,14.2177931 L20.6876414,12.8147586 L16.0641931,12.8147586 C13.8622621,12.8133793 11.9640552,14.3684138 11.5262621,16.5328276 C11.0887448,18.6969655 12.2327448,20.8704828 14.2597793,21.730069 C16.6211586,22.7217931 19.3395034,21.6117241 20.3309517,19.2503448 C21.0526069,17.5333793 20.676331,15.5513103 19.3761931,14.2177931 L20.6876414,14.2177931 Z" id="Fill-14" fill="#FEFEFE"></path>
                    </g>
                </g>
                <g id="XLM" transform="translate(54.291419, 260.631630) rotate(2.000000) translate(-54.291419, -260.631630) translate(35.791419, 237.631630)">
                    <g id="Page-1">
                        <path d="M19.54155,28.3353491 C19.533181,28.347066 19.5256929,28.3596509 19.5168833,28.3713679 C19.4917762,28.4060849 19.4631452,28.4368962 19.4358357,28.4703113 C17.5585262,30.9729717 14.9231571,32.2123679 13.4955738,31.2381226 C12.0671095,30.2643113 12.3842524,27.4422547 14.1840381,24.886217 C14.2082643,24.8515 14.2280857,24.8150472 14.2540738,24.7803302 C14.2752167,24.7512547 14.2972405,24.7230472 14.3192643,24.6948396 L13.2127881,23.9236887 C13.1700619,23.8937453 13.1268952,23.8633679 13.0846095,23.8329906 C12.8449905,24.0504057 12.6247524,24.2964623 12.4296214,24.5707264 C12.3939429,24.6215 12.364431,24.6740094 12.3309548,24.7256509 C9.77619286,28.4416698 9.34672857,32.556066 11.3975857,33.9885755 C13.4484429,35.4228208 17.2092286,33.6344623 19.875431,29.9978585 C19.9128714,29.9496887 19.9533952,29.9045566 19.9886333,29.854217 C20.1855262,29.5764811 20.3458595,29.2848585 20.4727167,28.9841226 C20.4590619,28.9745755 20.4449667,28.9650283 20.4313119,28.9554811 C20.2410262,28.8231226 19.9296095,28.6061415 19.54155,28.3353491" id="Fill-1" fill="#EB8123"></path>
                        <path d="M14.183994,24.8863038 C12.3842083,27.4423415 12.0670655,30.2643981 13.4959702,31.2382094 C14.9231131,32.2120208 17.5584821,30.9726245 19.4357917,28.4699642 C19.4631012,28.436983 19.4917321,28.4057377 19.5168393,28.3710208 C19.5256488,28.3593038 19.5335774,28.3471528 19.541506,28.3354358 C19.1019107,28.0290585 18.5636488,27.6536811 17.987506,27.2518321 L14.3192202,24.6949264 C14.2971964,24.723134 14.2751726,24.7509075 14.2540298,24.779983 C14.2280417,24.815134 14.2082202,24.8511528 14.183994,24.8863038" id="Fill-3" fill="#ECBA1D"></path>
                        <path d="M36.7227202,6.51685472 C36.5170179,3.77334528 35.8435298,1.57445849 35.5206607,1.04979811 C35.988006,1.93985472 36.3936845,3.87185472 36.5676726,5.10821321 C36.6271369,5.52742075 36.681756,6.00217547 36.7227202,6.51685472" id="Fill-5" fill="#DBF0F7"></path>
                        <path d="M30.7595095,13.9380868 C30.1331524,14.8151245 29.2367833,15.4361245 28.2012238,15.7195019 C28.1954976,15.7212377 28.189331,15.7225396 28.1831643,15.7242755 C28.0386881,15.7633321 27.891569,15.7958792 27.7422476,15.821483 C27.4726762,15.867483 27.2022238,15.890483 26.9339738,15.890483 C25.9799024,15.890483 25.0504976,15.6018981 24.2545571,15.0490302 C22.1508429,13.5874453 21.6451762,10.7111434 23.1264976,8.6376717 C23.7532952,7.75976604 24.6505452,7.13833208 25.6861048,6.85538868 C25.690069,6.85408679 25.6944738,6.85321887 25.6988786,6.85191698 C25.8442357,6.81286038 25.9926762,6.77987925 26.143319,6.75384151 C27.3726881,6.54336981 28.6108667,6.81806792 29.630569,7.5267283 C31.7360452,8.98874717 32.2425929,11.8646151 30.7595095,13.9380868 M35.6192833,7.27633208 C35.4814143,4.41304906 34.7881048,2.13648302 34.5128071,1.57884151 C34.4031286,1.56452075 34.2498429,1.55627547 34.0577952,1.55627547 C31.7651167,1.55627547 24.0237476,2.70540755 20.891081,7.80446415 C17.9059738,12.6631057 15.2010095,17.4662 13.9007238,19.7744453 C13.5434976,20.4084642 13.2853786,20.8667283 13.1413429,21.1140868 C12.9788071,21.3931245 12.8827833,21.6153132 12.8827833,21.8240491 C12.8959976,21.9442566 12.9294738,22.0592566 12.9796881,22.1716528 C13.1144738,22.4103321 13.3972595,22.663766 13.8773786,22.9987849 L18.6521405,26.3268415 C19.7370333,27.0832377 20.6897833,27.747634 21.0954619,28.0301434 C22.2257238,28.8186528 22.5618071,28.7453132 23.129581,28.0835208 C23.3167833,27.8661057 23.6656405,27.4712 24.1488429,26.9239736 C25.9067833,24.9355585 29.5653786,20.7977283 33.1821286,16.3791245 C35.4276762,13.636917 35.746581,9.9152566 35.6192833,7.27633208" id="Fill-7" fill="#DBF0F7"></path>
                        <g id="Group-11" transform="translate(4.404762, 0.336321)">
                            <mask id="mask-5" fill="white">
                                <use xlink:href="#path-4"></use>
                            </mask>
                            <g id="Clip-10"></g>
                            <path d="M19.744125,26.587783 C19.2609226,27.1345755 18.911625,27.5294811 18.7248631,27.7473302 C18.1566488,28.4086887 17.821006,28.4820283 16.6903036,27.6939528 C16.284625,27.4110094 15.331875,26.7466132 14.2474226,25.9906509 L9.47266071,22.6625943 C8.99254167,22.3275755 8.70975595,22.0741415 8.57497024,21.8350283 C8.50889881,21.7187264 8.47806548,21.6054623 8.47806548,21.4878585 C8.47806548,21.2791226 8.57408929,21.056934 8.736625,20.7778962 C8.88066071,20.5305377 9.13877976,20.0722736 9.49556548,19.4378208 C10.7962917,17.1300094 13.501256,12.3269151 16.4863631,7.46783962 C19.6190298,2.36921698 27.3603988,1.22008491 29.6530774,1.22008491 C29.845125,1.22008491 29.9984107,1.22789623 30.1080893,1.24265094 C30.3833869,1.79985849 31.0766964,4.07685849 31.2145655,6.94014151 C31.3418631,9.57906604 31.0225179,13.3007264 28.7774107,16.042934 C25.1606607,20.4611038 21.5020655,24.5993679 19.744125,26.587783 M32.3179583,6.18070755 C32.276994,5.6660283 32.222375,5.19127358 32.1629107,4.77206604 C31.9889226,3.53527358 31.583244,1.60370755 31.1154583,0.713216981 C31.0449821,0.578688679 30.9731845,0.46759434 30.900506,0.386877358 C30.8701131,0.350858491 30.8344345,0.318311321 30.7939107,0.290103774 C30.2019107,-0.123028302 27.5938512,0.211556604 26.088744,0.519669811 C23.2362202,1.10334906 18.0672321,2.70640566 15.5023393,6.88112264 C14.0967798,9.16940566 12.7533274,11.4442358 11.5882679,13.4534811 C8.57585119,13.0238585 4.39705357,13.8184434 0.227505952,19.0850094 C0.0121130952,19.3579717 -0.0940416667,19.768934 0.490910714,19.5897075 C1.82907738,19.1796132 4.52699405,18.7165755 7.80722024,20.0952736 C7.78255357,20.1386698 7.75876786,20.1790283 7.73894643,20.2137453 C6.77606548,21.8675755 7.68300595,22.781934 8.67980357,23.4962358 C8.72252976,23.5270472 8.76525595,23.5574245 8.80798214,23.5873679 L9.91445833,24.3585189 L13.582744,26.9154245 C14.1588869,27.3172736 14.6971488,27.6926509 15.136744,27.9990283 C15.5248036,28.2693868 15.8362202,28.4863679 16.026506,28.6191604 C16.0401607,28.6287075 16.054256,28.6382547 16.0679107,28.6478019 C16.636125,29.0409717 17.256756,29.4033302 17.913506,29.4033302 C18.4544107,29.4033302 19.0208631,29.1568396 19.6031726,28.4789906 C19.643256,28.4316887 19.6939107,28.3739717 19.7507321,28.3088774 C22.2398631,30.8775 22.712494,33.5446321 22.7719583,34.9189906 C22.7970655,35.5126509 23.1525298,35.2796132 23.3388512,34.9927642 C27.0318036,29.3069906 26.2666964,25.1665566 24.7787679,22.5679906 C26.2878393,20.8173868 27.9841131,18.8168208 29.6724583,16.7541981 C32.3183988,13.5229151 32.554494,9.16159434 32.3179583,6.18070755" id="Fill-9" fill="#5B6A72" mask="url(#mask-5)"></path>
                        </g>
                        <path d="M28.9657583,8.45614528 C28.3667107,8.03997547 27.666794,7.82256038 26.9483774,7.82256038 C26.7466393,7.82256038 26.5435798,7.83991887 26.3405202,7.87420189 C25.4164012,8.03259811 24.6098893,8.53599434 24.070306,9.2919566 C22.9550202,10.8533528 23.3360321,13.0192585 24.919544,14.1197868 C25.687294,14.6526925 26.6197821,14.8592585 27.5447821,14.7008623 C28.4693417,14.5429 29.2758536,14.0395038 29.8158774,13.2835415 C30.9324845,11.7221453 30.5510321,9.55710755 28.9657583,8.45614528" id="Fill-12" fill="#FEFEFE"></path>
                        <path d="M29.8157452,13.2833245 C29.2757214,14.0392868 28.4692095,14.542683 27.5450905,14.7010792 C26.61965,14.8590415 25.6871619,14.6524755 24.9198524,14.1195698 C23.3359,13.0190415 22.9548881,10.8535698 24.0701738,9.29217358 C24.6101976,8.53577736 25.4167095,8.03238113 26.3403881,7.87441887 C26.5434476,7.83970189 26.7465071,7.82277736 26.9482452,7.82277736 C27.6666619,7.82277736 28.3665786,8.03975849 28.9656262,8.4559283 C30.5509,9.55689057 30.9323524,11.7223623 29.8157452,13.2833245 M29.6307452,7.52638113 C28.6110429,6.81815472 27.3724238,6.5434566 26.1430548,6.7539283 C25.9924119,6.77996604 25.8439714,6.81251321 25.6986143,6.85200377 C25.69465,6.85330566 25.6902452,6.85417358 25.686281,6.85504151 C24.650281,7.13841887 23.753031,7.75985283 23.1262333,8.63775849 C21.6449119,10.7112302 22.151019,13.5875321 24.2547333,15.049117 C25.0506738,15.6019849 25.9800786,15.8901358 26.93415,15.8901358 C27.2019595,15.8901358 27.4728524,15.8675698 27.7424238,15.8215698 C27.8917452,15.795966 28.0388643,15.7629849 28.1833405,15.7243623 C28.1895071,15.7226264 28.1952333,15.7213245 28.2014,15.7195887 C29.2369595,15.4362113 30.1333286,14.8147774 30.7596857,13.9381736 C32.242769,11.8647019 31.735781,8.98883396 29.6307452,7.52638113" id="Fill-14" fill="#5B6A72"></path>
                        <polygon id="Fill-16" fill="#969696" points="6.48169524 36.5871849 8.80952381e-05 45.5732415 0.470516667 45.9021849 6.95212381 36.9165623"></polygon>
                        <polygon id="Fill-18" fill="#969696" points="3.50887738 44.4213755 3.97886548 44.7507528 7.76652024 39.5006774 7.29609167 39.1713"></polygon>
                    </g>
                </g>
                <g id="Earth" transform="translate(0.000000, 296.000000)" fill-rule="nonzero">
                    <path d="M35,17.5 C35,27.1678322 27.1678322,35 17.5,35 C7.83216783,35 0,27.1678322 0,17.5 C0,7.83216783 7.83216783,0 17.5,0 C27.1066434,-8.69545306e-15 35,7.83216783 35,17.5" id="Shape" fill="#7EC9C1"></path>
                    <path d="M6.55477687,14.0238664 C6.55477687,14.0238664 7.99236478,13.7210595 9.7424718,15.8407083 C11.4925788,17.9603572 10.9925482,17.778673 12.5551438,18.1420414 C14.1177393,18.5054098 15.305312,19.292708 14.930289,20.0194447 C14.6177699,20.7461815 14.1802432,22.0179708 13.8677241,22.9869532 C13.5552049,23.9559355 12.6176476,23.2291987 12.117617,23.7742513 C11.6175865,24.3193039 11.1800597,24.6826723 10.36751,26.620637 C9.55496033,28.619163 9.36744886,29.527584 9.92998326,30.2543208 C10.4925177,30.9810575 10.1174947,31.3444259 9.55496033,30.5571277 C8.99242593,29.7092682 7.86735713,28.1346719 7.99236478,26.015023 C8.11737242,23.8953741 7.30482273,22.1390936 6.30476158,20.5039359 C5.30470042,18.9293396 4.55465456,19.4138307 5.30470042,17.4153047 C5.92973865,15.4167786 5.36720425,13.7816209 6.55477687,14.0238664" id="Shape" fill="#4BB134"></path>
                    <path d="M1,11.8597613 C1.23021583,12.2116909 1.46043165,12.5636205 1.46043165,12.8568952 C1.46043165,13.7367192 1.57553957,13.1501698 2.43884892,13.8540291 C3.30215827,14.5578883 4.28057554,15.1444376 4.3381295,14.9684728 C4.3381295,14.9684728 3.64748201,13.5607544 3.5323741,12.7982402 C3.35971223,11.9770711 3.47482014,13.5020994 2.66906475,12.4463106 C1.92086331,11.3905218 2.20863309,10.5693527 3.24460432,11.155902 C4.28057554,11.7424514 4.39568345,11.155902 4.97122302,9.45490894 C5.54676259,7.75391583 6.58273381,7.22602142 7.04316547,6.87409181 C7.50359712,6.5221622 7.56115108,5.75964804 7.90647482,5.99426778 C8.30935252,6.22888752 9,5.64233818 9,5.11444376 C9,4.64520428 7.90647482,4.23461974 6.4676259,4 C3.9352518,5.93561285 2.03597122,8.69239479 1,11.8597613" id="Shape" fill="#4AB134"></path>
                    <path d="M23.9326891,16.1853576 C23.9326891,16.1853576 22.2514631,17.3325995 20.7441569,15.7023083 C19.2368508,14.0720171 19.0629309,14.1323983 19.0049576,13.2870621 C18.9469842,12.4417259 19.4107708,11.1133405 19.7006373,10.6906724 C19.9325306,10.2680043 20.5122637,9 21.2659168,9 C22.0195698,9 24.3964756,9.12076231 25.0921554,9.90571734 C25.7878352,10.6302912 27.5270345,10.6302912 28.2227143,10.6906724 C28.918394,10.7510535 28.5125809,12.5624882 29.4981272,13.8304925 C30.4836735,15.0984968 31.7590864,15.0381156 30.4257002,16.5476445 C29.092314,17.9967923 29.6140738,17.8156488 29.2662339,19.8686081 C28.918394,21.9215674 27.4690612,23.7933832 26.8893281,23.9745267 C26.309595,24.1556702 26.5414882,23.3707151 25.6718885,21.6196616 C24.8022888,19.8686081 24.9182355,19.6874646 24.9762088,18.1779357 C25.0921554,16.6684068 24.3385023,15.9438329 23.9326891,16.1853576" id="Shape" fill="#4BB134"></path>
                    <path d="M31.2080588,13.7857261 C31.6261784,14.3974833 31.4469843,13.6021989 31.8053725,12.6233873 C32.1637608,11.6445758 31.2677902,11.5222243 30.7899392,10.4210613 C30.3120882,9.3198983 31.8053725,10.9104671 32.7610745,10.8492914 C32.8805373,10.8492914 32.9402686,10.7881156 33,10.7881156 C32.4624176,9.56460119 31.8053725,8.40226246 31.088596,7.36227517 C31.1483274,7.9740324 31.1483274,8.34108674 30.6704764,7.72932951 C30.2523568,7.178748 30.1328941,6.68934222 30.1328941,6.13876072 C28.997998,4.79289481 27.6839078,3.6917318 26.1906234,2.71292024 C26.130892,2.95762313 25.9516979,3.20232602 25.6530411,3.26350174 C24.6376077,3.44702891 24.1597567,3.81408325 24.5778763,3.1411503 C24.8168018,2.77409596 25.2349214,2.52939307 25.4141156,2.22351446 C24.518145,1.73410867 23.6221744,1.36705434 22.6664724,1 C22.606741,1.24470289 22.7262038,1.55058151 23.084592,1.73410867 C24.1000253,2.22351446 24.3986822,2.89644741 23.5027116,3.20232602 C22.606741,3.44702891 22.4872783,2.03998729 21.7107704,1.67293295 C20.9342625,1.30587861 19.4409782,1.67293295 20.2174861,2.52939307 C20.9939939,3.44702891 22.12889,3.20232602 22.2483528,4.30348903 C22.3678155,5.34347632 20.9939939,5.71053066 20.6953371,5.71053066 C20.4564116,5.71053066 20.4564116,6.87286939 20.4564116,6.87286939 C20.4564116,6.87286939 21.5913077,8.34108674 22.1886214,7.48462662 C22.7859351,6.6281665 22.4872783,4.97642198 24.8765332,6.32228788 C27.2657881,7.66815379 28.2812215,7.05639656 28.8188039,8.34108674 C29.2966548,9.68695264 29.1174607,10.2375341 29.8342372,11.3998729 C29.7147745,11.5222243 30.7899392,13.2351446 31.2080588,13.7857261" id="Shape" fill="#4BB134"></path>
                    <path d="M10,2.58151978 C10.3636364,2.71904324 10.7878788,2.8565667 11.2121212,2.78780497 C12.0606061,2.51275805 11.8181818,3.40666054 12.0606061,3.81923092 C12.2424242,4.30056303 12.8484848,3.75046919 12.969697,2.99409016 C13.0909091,2.23771114 13.1515152,2.03142595 13.6969697,1.48133211 C13.8787879,1.27504692 13.9393939,1.13752346 14,1 C12.5454545,1.34380865 11.2121212,1.89390249 10,2.58151978" id="Shape" fill="#4AB134"></path>
                    <path d="M19,35 C18.5506378,34.6556065 17.9086919,34.1734555 17.0741621,33.7601833 C15.1483243,32.658124 16.6889946,31.9693369 15.982854,31.3494286 C15.3409081,30.7295202 13.6718486,31.005035 14.0570161,31.6249434 C14.4421837,32.3137305 14.5063783,32.4514879 14.5063783,33.7601833 C14.5063783,34.1734555 14.6347675,34.4489704 14.7631567,34.6556065 C15.8544648,34.8622426 16.8815783,35 18.0370811,35 C18.358054,35 18.679027,35 19,35" id="Shape" fill="#4BB134"></path>
                    <path d="M30,29 C28.9480519,29.4216867 27.1948052,30.686747 26.1428571,30.746988 C24.5064935,30.8674699 24.2142857,30.8674699 22.6948052,32.0120482 C21.1753247,33.1566265 22.2857143,32.8554217 21.4675325,33.5180723 C21.2922078,33.6987952 21.1168831,33.8192771 21,34 C24.5064935,33.3373494 27.6623377,31.5301205 30,29" id="Shape" fill="#4BB134"></path>
                </g>
            </g>
        </g>
    </g>
</svg>